<svg xmlns="http://www.w3.org/2000/svg" xmlns:xlink="http://www.w3.org/1999/xlink" version="1.1" class="marks" width="852" height="675" viewBox="0 0 852 675"><rect width="852" height="675" fill="white"/><g fill="none" stroke-miterlimit="10" transform="translate(47,38)"><g class="mark-group role-frame root" role="graphics-object" aria-roledescription="group mark container"><g transform="translate(0,0)"><path class="background" aria-hidden="true" d="M0.5,0.5h800v600h-800Z" stroke="#ddd"/><g><g class="mark-group role-axis" role="graphics-symbol" aria-roledescription="axis" aria-label="X-axis titled 'Parser' for a discrete scale with 7 values: yaml_rs, PyYAML (CDumper), PyYAML (CSafeDumper), ryaml, oyaml, PyYAML, ruamel.yaml"><g transform="translate(0.5,600.5)"><path class="background" aria-hidden="true" d="M0,0h0v0h0Z" pointer-events="none"/><g><g class="mark-rule role-axis-tick" pointer-events="none"><line transform="translate(57,0)" x2="0" y2="5" stroke="#888" stroke-width="1" opacity="1"/><line transform="translate(171,0)" x2="0" y2="5" stroke="#888" stroke-width="1" opacity="1"/><line transform="translate(285,0)" x2="0" y2="5" stroke="#888" stroke-width="1" opacity="1"/><line transform="translate(400,0)" x2="0" y2="5" stroke="#888" stroke-width="1" opacity="1"/><line transform="translate(514,0)" x2="0" y2="5" stroke="#888" stroke-width="1" opacity="1"/><line transform="translate(628,0)" x2="0" y2="5" stroke="#888" stroke-width="1" opacity="1"/><line transform="translate(742,0)" x2="0" y2="5" stroke="#888" stroke-width="1" opacity="1"/></g><g class="mark-text role-axis-label" pointer-events="none"><text text-anchor="middle" transform="translate(56.642857142857096,15)" font-family="sans-serif" font-size="10px" fill="#000" opacity="1">yaml_rs</text><text text-anchor="middle" transform="translate(170.9285714285714,15)" font-family="sans-serif" font-size="10px" fill="#000" opacity="1">PyYAML (CDumper)</text><text text-anchor="middle" transform="translate(285.21428571428567,15)" font-family="sans-serif" font-size="10px" fill="#000" opacity="1">PyYAML (CSafeDumper)</text><text text-anchor="middle" transform="translate(399.5,15)" font-family="sans-serif" font-size="10px" fill="#000" opacity="1">ryaml</text><text text-anchor="middle" transform="translate(513.7857142857142,15)" font-family="sans-serif" font-size="10px" fill="#000" opacity="1">oyaml</text><text text-anchor="middle" transform="translate(628.0714285714286,15)" font-family="sans-serif" font-size="10px" fill="#000" opacity="1">PyYAML</text><text text-anchor="middle" transform="translate(742.3571428571429,15)" font-family="sans-serif" font-size="10px" fill="#000" opacity="1">ruamel.yaml</text></g><g class="mark-rule role-axis-domain" pointer-events="none"><line transform="translate(0,0)" x2="800" y2="0" stroke="#888" stroke-width="1" opacity="1"/></g><g class="mark-text role-axis-title" pointer-events="none"><text text-anchor="middle" transform="translate(400,30)" font-family="sans-serif" font-size="11px" font-weight="bold" fill="#000" opacity="1">Parser</text></g></g><path class="foreground" aria-hidden="true" d="" pointer-events="none" display="none"/></g></g><g class="mark-group role-axis" role="graphics-symbol" aria-roledescription="axis" aria-label="Y-axis titled 'Execution Time (seconds, lower=better)' for a linear scale with values from 0 to 11"><g transform="translate(0.5,0.5)"><path class="background" aria-hidden="true" d="M0,0h0v0h0Z" pointer-events="none"/><g><g class="mark-rule role-axis-tick" pointer-events="none"><line transform="translate(0,600)" x2="-5" y2="0" stroke="#888" stroke-width="1" opacity="1"/><line transform="translate(0,572)" x2="-5" y2="0" stroke="#888" stroke-width="1" opacity="1"/><line transform="translate(0,543)" x2="-5" y2="0" stroke="#888" stroke-width="1" opacity="1"/><line transform="translate(0,515)" x2="-5" y2="0" stroke="#888" stroke-width="1" opacity="1"/><line transform="translate(0,486)" x2="-5" y2="0" stroke="#888" stroke-width="1" opacity="1"/><line transform="translate(0,458)" x2="-5" y2="0" stroke="#888" stroke-width="1" opacity="1"/><line transform="translate(0,430)" x2="-5" y2="0" stroke="#888" stroke-width="1" opacity="1"/><line transform="translate(0,401)" x2="-5" y2="0" stroke="#888" stroke-width="1" opacity="1"/><line transform="translate(0,373)" x2="-5" y2="0" stroke="#888" stroke-width="1" opacity="1"/><line transform="translate(0,344)" x2="-5" y2="0" stroke="#888" stroke-width="1" opacity="1"/><line transform="translate(0,316)" x2="-5" y2="0" stroke="#888" stroke-width="1" opacity="1"/><line transform="translate(0,288)" x2="-5" y2="0" stroke="#888" stroke-width="1" opacity="1"/><line transform="translate(0,259)" x2="-5" y2="0" stroke="#888" stroke-width="1" opacity="1"/><line transform="translate(0,231)" x2="-5" y2="0" stroke="#888" stroke-width="1" opacity="1"/><line transform="translate(0,203)" x2="-5" y2="0" stroke="#888" stroke-width="1" opacity="1"/><line transform="translate(0,174)" x2="-5" y2="0" stroke="#888" stroke-width="1" opacity="1"/><line transform="translate(0,146)" x2="-5" y2="0" stroke="#888" stroke-width="1" opacity="1"/><line transform="translate(0,117)" x2="-5" y2="0" stroke="#888" stroke-width="1" opacity="1"/><line transform="translate(0,89)" x2="-5" y2="0" stroke="#888" stroke-width="1" opacity="1"/><line transform="translate(0,61)" x2="-5" y2="0" stroke="#888" stroke-width="1" opacity="1"/><line transform="translate(0,32)" x2="-5" y2="0" stroke="#888" stroke-width="1" opacity="1"/><line transform="translate(0,4)" x2="-5" y2="0" stroke="#888" stroke-width="1" opacity="1"/></g><g class="mark-text role-axis-label" pointer-events="none"><text text-anchor="end" transform="translate(-7,603)" font-family="sans-serif" font-size="10px" fill="#000" opacity="1">0.0</text><text text-anchor="end" transform="translate(-7,574.6081405445342)" font-family="sans-serif" font-size="10px" fill="#000" opacity="1">0.5</text><text text-anchor="end" transform="translate(-7,546.2162810890683)" font-family="sans-serif" font-size="10px" fill="#000" opacity="1">1.0</text><text text-anchor="end" transform="translate(-7,517.8244216336025)" font-family="sans-serif" font-size="10px" fill="#000" opacity="1">1.5</text><text text-anchor="end" transform="translate(-7,489.43256217813666)" font-family="sans-serif" font-size="10px" fill="#000" opacity="1">2.0</text><text text-anchor="end" transform="translate(-7,461.04070272267086)" font-family="sans-serif" font-size="10px" fill="#000" opacity="1">2.5</text><text text-anchor="end" transform="translate(-7,432.64884326720505)" font-family="sans-serif" font-size="10px" fill="#000" opacity="1">3.0</text><text text-anchor="end" transform="translate(-7,404.25698381173913)" font-family="sans-serif" font-size="10px" fill="#000" opacity="1">3.5</text><text text-anchor="end" transform="translate(-7,375.8651243562733)" font-family="sans-serif" font-size="10px" fill="#000" opacity="1">4.0</text><text text-anchor="end" transform="translate(-7,347.4732649008075)" font-family="sans-serif" font-size="10px" fill="#000" opacity="1">4.5</text><text text-anchor="end" transform="translate(-7,319.08140544534166)" font-family="sans-serif" font-size="10px" fill="#000" opacity="1">5.0</text><text text-anchor="end" transform="translate(-7,290.68954598987585)" font-family="sans-serif" font-size="10px" fill="#000" opacity="1">5.5</text><text text-anchor="end" transform="translate(-7,262.29768653441005)" font-family="sans-serif" font-size="10px" fill="#000" opacity="1">6.0</text><text text-anchor="end" transform="translate(-7,233.90582707894418)" font-family="sans-serif" font-size="10px" fill="#000" opacity="1">6.5</text><text text-anchor="end" transform="translate(-7,205.51396762347838)" font-family="sans-serif" font-size="10px" fill="#000" opacity="1">7.0</text><text text-anchor="end" transform="translate(-7,177.12210816801257)" font-family="sans-serif" font-size="10px" fill="#000" opacity="1">7.5</text><text text-anchor="end" transform="translate(-7,148.73024871254668)" font-family="sans-serif" font-size="10px" fill="#000" opacity="1">8.0</text><text text-anchor="end" transform="translate(-7,120.33838925708089)" font-family="sans-serif" font-size="10px" fill="#000" opacity="1">8.5</text><text text-anchor="end" transform="translate(-7,91.94652980161509)" font-family="sans-serif" font-size="10px" fill="#000" opacity="1">9.0</text><text text-anchor="end" transform="translate(-7,63.55467034614921)" font-family="sans-serif" font-size="10px" fill="#000" opacity="1">9.5</text><text text-anchor="end" transform="translate(-7,35.1628108906834)" font-family="sans-serif" font-size="10px" fill="#000" opacity="1">10.0</text><text text-anchor="end" transform="translate(-7,6.7709514352175955)" font-family="sans-serif" font-size="10px" fill="#000" opacity="1">10.5</text></g><g class="mark-rule role-axis-domain" pointer-events="none"><line transform="translate(0,600)" x2="0" y2="-600" stroke="#888" stroke-width="1" opacity="1"/></g><g class="mark-text role-axis-title" pointer-events="none"><text text-anchor="middle" transform="translate(-30.462890625,300) rotate(-90) translate(0,-2)" font-family="sans-serif" font-size="11px" font-weight="bold" fill="#000" opacity="1">Execution Time (seconds, lower=better)</text></g></g><path class="foreground" aria-hidden="true" d="" pointer-events="none" display="none"/></g></g><g class="mark-group role-scope" role="graphics-object" aria-roledescription="group mark container"><g transform="translate(5.714285714285666,597.8308450917741)"><path class="background" aria-hidden="true" d="M1.0845774541129458,0L101.77256540302992,0C102.3711599951823,0,102.85714285714286,0.4859828619605592,102.85714285714286,1.0845774541129458L102.85714285714286,2.1691549082258916C102.85714285714286,2.1691549082258916,102.85714285714286,2.1691549082258916,102.85714285714286,2.1691549082258916L0,2.1691549082258916C0,2.1691549082258916,0,2.1691549082258916,0,2.1691549082258916L0,1.0845774541129458C0,0.4859828619605592,0.4859828619605592,0,1.0845774541129458,0Z"/><g clip-path="url(#clip9)"><g class="mark-group role-scope" role="graphics-object" aria-roledescription="group mark container"><g transform="translate(0,-597.8308450917741)"><path class="background" aria-hidden="true" d="M0,0h102.85714285714286v0h-102.85714285714286Z"/><g><g class="mark-rect role-mark layer_0_marks" role="graphics-object" aria-roledescription="rect mark container"><path aria-label="Parser: yaml_rs; Execution Time (seconds, lower=better): 0.0382002966665; parser: yaml_rs; Execution Time (s): 0.0382; Slowdown: 1.00" role="graphics-symbol" aria-roledescription="bar" d="M0,597.8308450917741h102.85714285714286v2.1691549082258916h-102.85714285714286Z" fill="#a6761d"/></g></g><path class="foreground" aria-hidden="true" d="" display="none"/></g></g></g><path class="foreground" aria-hidden="true" d="" display="none"/></g><g transform="translate(119.99999999999996,591.158535773592)"><path class="background" aria-hidden="true" d="M4.4207321132039965,0L98.43641074393886,0C100.87627921647926,0,102.85714285714286,1.9808636406636004,102.85714285714286,4.4207321132039965L102.85714285714286,8.841464226407993C102.85714285714286,8.841464226407993,102.85714285714286,8.841464226407993,102.85714285714286,8.841464226407993L0,8.841464226407993C0,8.841464226407993,0,8.841464226407993,0,8.841464226407993L0,4.4207321132039965C0,1.9808636406636004,1.9808636406636004,0,4.4207321132039965,0Z"/><g clip-path="url(#clip10)"><g class="mark-group role-scope" role="graphics-object" aria-roledescription="group mark container"><g transform="translate(0,-591.158535773592)"><path class="background" aria-hidden="true" d="M0,0h102.85714285714286v0h-102.85714285714286Z"/><g><g class="mark-rect role-mark layer_0_marks" role="graphics-object" aria-roledescription="rect mark container"><path aria-label="Parser: PyYAML (CDumper); Execution Time (seconds, lower=better): 0.155704212334; parser: PyYAML (CDumper); Execution Time (s): 0.1557; Slowdown: 4.08" role="graphics-symbol" aria-roledescription="bar" d="M0,591.158535773592h102.85714285714286v8.841464226407993h-102.85714285714286Z" fill="#d95f02"/></g></g><path class="foreground" aria-hidden="true" d="" display="none"/></g></g></g><path class="foreground" aria-hidden="true" d="" display="none"/></g><g transform="translate(234.28571428571425,591.1427534770723)"><path class="background" aria-hidden="true" d="M4.428623261463827,0L98.42851959567903,0C100.87274331150454,0,102.85714285714286,1.9843995456383206,102.85714285714286,4.428623261463827L102.85714285714286,8.857246522927653C102.85714285714286,8.857246522927653,102.85714285714286,8.857246522927653,102.85714285714286,8.857246522927653L0,8.857246522927653C0,8.857246522927653,0,8.857246522927653,0,8.857246522927653L0,4.428623261463827C0,1.9843995456383206,1.9843995456383206,0,4.428623261463827,0Z"/><g clip-path="url(#clip11)"><g class="mark-group role-scope" role="graphics-object" aria-roledescription="group mark container"><g transform="translate(0,-591.1427534770723)"><path class="background" aria-hidden="true" d="M0,0h102.85714285714286v0h-102.85714285714286Z"/><g><g class="mark-rect role-mark layer_0_marks" role="graphics-object" aria-roledescription="rect mark container"><path aria-label="Parser: PyYAML (CSafeDumper); Execution Time (seconds, lower=better): 0.155982149334; parser: PyYAML (CSafeDumper); Execution Time (s): 0.1560; Slowdown: 4.08" role="graphics-symbol" aria-roledescription="bar" d="M0,591.1427534770723h102.85714285714286v8.857246522927653h-102.85714285714286Z" fill="#7570b3"/></g></g><path class="foreground" aria-hidden="true" d="" display="none"/></g></g></g><path class="foreground" aria-hidden="true" d="" display="none"/></g><g transform="translate(348.57142857142856,587.6403524712003)"><path class="background" aria-hidden="true" d="M6,0L96.85714285714286,0C100.16863300410687,0,102.85714285714286,2.688509853036,102.85714285714286,6L102.85714285714286,12.359647528799655C102.85714285714286,12.359647528799655,102.85714285714286,12.359647528799655,102.85714285714286,12.359647528799655L0,12.359647528799655C0,12.359647528799655,0,12.359647528799655,0,12.359647528799655L0,6C0,2.688509853036,2.688509853036,0,6,0Z"/><g clip-path="url(#clip12)"><g class="mark-group role-scope" role="graphics-object" aria-roledescription="group mark container"><g transform="translate(0,-587.6403524712003)"><path class="background" aria-hidden="true" d="M0,0h102.85714285714286v0h-102.85714285714286Z"/><g><g class="mark-rect role-mark layer_0_marks" role="graphics-object" aria-roledescription="rect mark container"><path aria-label="Parser: ryaml; Execution Time (seconds, lower=better): 0.217661818666; parser: ryaml; Execution Time (s): 0.2177; Slowdown: 5.70" role="graphics-symbol" aria-roledescription="bar" d="M0,587.6403524712003h102.85714285714286v12.359647528799655h-102.85714285714286Z" fill="#e6ab02"/></g></g><path class="foreground" aria-hidden="true" d="" display="none"/></g></g></g><path class="foreground" aria-hidden="true" d="" display="none"/></g><g transform="translate(462.85714285714283,43.507813030113155)"><path class="background" aria-hidden="true" d="M6,0L96.85714285714286,0C100.16863300410687,0,102.85714285714286,2.688509853036,102.85714285714286,6L102.85714285714286,556.4921869698868C102.85714285714286,556.4921869698868,102.85714285714286,556.4921869698868,102.85714285714286,556.4921869698868L0,556.4921869698868C0,556.4921869698868,0,556.4921869698868,0,556.4921869698868L0,6C0,2.688509853036,2.688509853036,0,6,0Z"/><g clip-path="url(#clip13)"><g class="mark-group role-scope" role="graphics-object" aria-roledescription="group mark container"><g transform="translate(0,-43.507813030113155)"><path class="background" aria-hidden="true" d="M0,0h102.85714285714286v0h-102.85714285714286Z"/><g><g class="mark-rect role-mark layer_0_marks" role="graphics-object" aria-roledescription="rect mark container"><path aria-label="Parser: oyaml; Execution Time (seconds, lower=better): 9.80020677833; parser: oyaml; Execution Time (s): 9.8002; Slowdown: 256.55" role="graphics-symbol" aria-roledescription="bar" d="M0,43.507813030113155h102.85714285714286v556.4921869698868h-102.85714285714286Z" fill="#e7298a"/></g></g><path class="foreground" aria-hidden="true" d="" display="none"/></g></g></g><path class="foreground" aria-hidden="true" d="" display="none"/></g><g transform="translate(577.1428571428571,40.90204532474646)"><path class="background" aria-hidden="true" d="M6,0L96.85714285714286,0C100.16863300410687,0,102.85714285714286,2.688509853036,102.85714285714286,6L102.85714285714286,559.0979546752535C102.85714285714286,559.0979546752535,102.85714285714286,559.0979546752535,102.85714285714286,559.0979546752535L0,559.0979546752535C0,559.0979546752535,0,559.0979546752535,0,559.0979546752535L0,6C0,2.688509853036,2.688509853036,0,6,0Z"/><g clip-path="url(#clip14)"><g class="mark-group role-scope" role="graphics-object" aria-roledescription="group mark container"><g transform="translate(0,-40.90204532474646)"><path class="background" aria-hidden="true" d="M0,0h102.85714285714286v0h-102.85714285714286Z"/><g><g class="mark-rect role-mark layer_0_marks" role="graphics-object" aria-roledescription="rect mark container"><path aria-label="Parser: PyYAML; Execution Time (seconds, lower=better): 9.846096124; parser: PyYAML; Execution Time (s): 9.8461; Slowdown: 257.75" role="graphics-symbol" aria-roledescription="bar" d="M0,40.90204532474646h102.85714285714286v559.0979546752535h-102.85714285714286Z" fill="#1b9e77"/></g></g><path class="foreground" aria-hidden="true" d="" display="none"/></g></g></g><path class="foreground" aria-hidden="true" d="" display="none"/></g><g transform="translate(691.4285714285714,23.07692307692313)"><path class="background" aria-hidden="true" d="M6,0L96.85714285714286,0C100.16863300410687,0,102.85714285714286,2.688509853036,102.85714285714286,6L102.85714285714286,576.9230769230769C102.85714285714286,576.9230769230769,102.85714285714286,576.9230769230769,102.85714285714286,576.9230769230769L0,576.9230769230769C0,576.9230769230769,0,576.9230769230769,0,576.9230769230769L0,6C0,2.688509853036,2.688509853036,0,6,0Z"/><g clip-path="url(#clip15)"><g class="mark-group role-scope" role="graphics-object" aria-roledescription="group mark container"><g transform="translate(0,-23.07692307692313)"><path class="background" aria-hidden="true" d="M0,0h102.85714285714286v0h-102.85714285714286Z"/><g><g class="mark-rect role-mark layer_0_marks" role="graphics-object" aria-roledescription="rect mark container"><path aria-label="Parser: ruamel.yaml; Execution Time (seconds, lower=better): 10.1600086783; parser: ruamel.yaml; Execution Time (s): 10.1600; Slowdown: 265.97" role="graphics-symbol" aria-roledescription="bar" d="M0,23.07692307692313h102.85714285714286v576.9230769230769h-102.85714285714286Z" fill="#66a61e"/></g></g><path class="foreground" aria-hidden="true" d="" display="none"/></g></g></g><path class="foreground" aria-hidden="true" d="" display="none"/></g></g><g class="mark-text role-mark layer_1_marks" role="graphics-object" aria-roledescription="text mark container"><text aria-label="Parser: yaml_rs; Execution Time (seconds, lower=better): 0.0382002966665; parser: yaml_rs; label: 0.0382s (x1.00); Execution Time (s): 0.0382; Slowdown: 1.00" role="graphics-symbol" aria-roledescription="text mark" text-anchor="middle" transform="translate(57.142857142857096,593.8308450917741)" font-family="sans-serif" font-size="9px" font-weight="bold" fill="#a6761d">0.0382s (x1.00)</text><text aria-label="Parser: PyYAML (CDumper); Execution Time (seconds, lower=better): 0.155704212334; parser: PyYAML (CDumper); label: 0.1557s (x4.08); Execution Time (s): 0.1557; Slowdown: 4.08" role="graphics-symbol" aria-roledescription="text mark" text-anchor="middle" transform="translate(171.4285714285714,587.158535773592)" font-family="sans-serif" font-size="9px" font-weight="bold" fill="#d95f02">0.1557s (x4.08)</text><text aria-label="Parser: PyYAML (CSafeDumper); Execution Time (seconds, lower=better): 0.155982149334; parser: PyYAML (CSafeDumper); label: 0.1560s (x4.08); Execution Time (s): 0.1560; Slowdown: 4.08" role="graphics-symbol" aria-roledescription="text mark" text-anchor="middle" transform="translate(285.71428571428567,587.1427534770723)" font-family="sans-serif" font-size="9px" font-weight="bold" fill="#7570b3">0.1560s (x4.08)</text><text aria-label="Parser: ryaml; Execution Time (seconds, lower=better): 0.217661818666; parser: ryaml; label: 0.2177s (x5.70); Execution Time (s): 0.2177; Slowdown: 5.70" role="graphics-symbol" aria-roledescription="text mark" text-anchor="middle" transform="translate(400,583.6403524712003)" font-family="sans-serif" font-size="9px" font-weight="bold" fill="#e6ab02">0.2177s (x5.70)</text><text aria-label="Parser: oyaml; Execution Time (seconds, lower=better): 9.80020677833; parser: oyaml; label: 9.8002s (x256.55); Execution Time (s): 9.8002; Slowdown: 256.55" role="graphics-symbol" aria-roledescription="text mark" text-anchor="middle" transform="translate(514.2857142857142,39.507813030113155)" font-family="sans-serif" font-size="9px" font-weight="bold" fill="#e7298a">9.8002s (x256.55)</text><text aria-label="Parser: PyYAML; Execution Time (seconds, lower=better): 9.846096124; parser: PyYAML; label: 9.8461s (x257.75); Execution Time (s): 9.8461; Slowdown: 257.75" role="graphics-symbol" aria-roledescription="text mark" text-anchor="middle" transform="translate(628.5714285714286,36.90204532474646)" font-family="sans-serif" font-size="9px" font-weight="bold" fill="#1b9e77">9.8461s (x257.75)</text><text aria-label="Parser: ruamel.yaml; Execution Time (seconds, lower=better): 10.1600086783; parser: ruamel.yaml; label: 10.1600s (x265.97); Execution Time (s): 10.1600; Slowdown: 265.97" role="graphics-symbol" aria-roledescription="text mark" text-anchor="middle" transform="translate(742.8571428571429,19.07692307692313)" font-family="sans-serif" font-size="9px" font-weight="bold" fill="#66a61e">10.1600s (x265.97)</text></g><g class="mark-group role-title"><g transform="translate(400,-32.2290485647824)"><path class="background" aria-hidden="true" d="M0,0h0v0h0Z" pointer-events="none"/><g><g class="mark-text role-title-text" role="graphics-symbol" aria-roledescription="title" aria-label="Title text 'YAML parsers benchmark (dumps)'" pointer-events="none"><text text-anchor="middle" transform="translate(0,10)" font-family="sans-serif" font-size="13px" font-weight="bold" fill="#000" opacity="1">YAML parsers benchmark (dumps)</text></g><g class="mark-text role-title-subtitle" role="graphics-symbol" aria-roledescription="subtitle" aria-label="Subtitle text 'Python: 3.13.11+ (Linux 6.17.7-ba25.fc43.x86_64) | CPU: AMD Ryzen 9 9950X 16-Core Processor'" pointer-events="none"><text text-anchor="middle" transform="translate(0,25)" font-family="sans-serif" font-size="12px" fill="#000" opacity="1">Python: 3.13.11+ (Linux 6.17.7-ba25.fc43.x86_64) | CPU: AMD Ryzen 9 9950X 16-Core Processor</text></g></g><path class="foreground" aria-hidden="true" d="" pointer-events="none" display="none"/></g></g></g><path class="foreground" aria-hidden="true" d="" display="none"/></g></g></g><defs><clipPath id="clip9"><path d="M1.0845774541129458,0L101.77256540302992,0C102.3711599951823,0,102.85714285714286,0.4859828619605592,102.85714285714286,1.0845774541129458L102.85714285714286,2.1691549082258916C102.85714285714286,2.1691549082258916,102.85714285714286,2.1691549082258916,102.85714285714286,2.1691549082258916L0,2.1691549082258916C0,2.1691549082258916,0,2.1691549082258916,0,2.1691549082258916L0,1.0845774541129458C0,0.4859828619605592,0.4859828619605592,0,1.0845774541129458,0Z"/></clipPath><clipPath id="clip10"><path d="M4.4207321132039965,0L98.43641074393886,0C100.87627921647926,0,102.85714285714286,1.9808636406636004,102.85714285714286,4.4207321132039965L102.85714285714286,8.841464226407993C102.85714285714286,8.841464226407993,102.85714285714286,8.841464226407993,102.85714285714286,8.841464226407993L0,8.841464226407993C0,8.841464226407993,0,8.841464226407993,0,8.841464226407993L0,4.4207321132039965C0,1.9808636406636004,1.9808636406636004,0,4.4207321132039965,0Z"/></clipPath><clipPath id="clip11"><path d="M4.428623261463827,0L98.42851959567903,0C100.87274331150454,0,102.85714285714286,1.9843995456383206,102.85714285714286,4.428623261463827L102.85714285714286,8.857246522927653C102.85714285714286,8.857246522927653,102.85714285714286,8.857246522927653,102.85714285714286,8.857246522927653L0,8.857246522927653C0,8.857246522927653,0,8.857246522927653,0,8.857246522927653L0,4.428623261463827C0,1.9843995456383206,1.9843995456383206,0,4.428623261463827,0Z"/></clipPath><clipPath id="clip12"><path d="M6,0L96.85714285714286,0C100.16863300410687,0,102.85714285714286,2.688509853036,102.85714285714286,6L102.85714285714286,12.359647528799655C102.85714285714286,12.359647528799655,102.85714285714286,12.359647528799655,102.85714285714286,12.359647528799655L0,12.359647528799655C0,12.359647528799655,0,12.359647528799655,0,12.359647528799655L0,6C0,2.688509853036,2.688509853036,0,6,0Z"/></clipPath><clipPath id="clip13"><path d="M6,0L96.85714285714286,0C100.16863300410687,0,102.85714285714286,2.688509853036,102.85714285714286,6L102.85714285714286,556.4921869698868C102.85714285714286,556.4921869698868,102.85714285714286,556.4921869698868,102.85714285714286,556.4921869698868L0,556.4921869698868C0,556.4921869698868,0,556.4921869698868,0,556.4921869698868L0,6C0,2.688509853036,2.688509853036,0,6,0Z"/></clipPath><clipPath id="clip14"><path d="M6,0L96.85714285714286,0C100.16863300410687,0,102.85714285714286,2.688509853036,102.85714285714286,6L102.85714285714286,559.0979546752535C102.85714285714286,559.0979546752535,102.85714285714286,559.0979546752535,102.85714285714286,559.0979546752535L0,559.0979546752535C0,559.0979546752535,0,559.0979546752535,0,559.0979546752535L0,6C0,2.688509853036,2.688509853036,0,6,0Z"/></clipPath><clipPath id="clip15"><path d="M6,0L96.85714285714286,0C100.16863300410687,0,102.85714285714286,2.688509853036,102.85714285714286,6L102.85714285714286,576.9230769230769C102.85714285714286,576.9230769230769,102.85714285714286,576.9230769230769,102.85714285714286,576.9230769230769L0,576.9230769230769C0,576.9230769230769,0,576.9230769230769,0,576.9230769230769L0,6C0,2.688509853036,2.688509853036,0,6,0Z"/></clipPath></defs></svg>