<svg xmlns="http://www.w3.org/2000/svg" xmlns:xlink="http://www.w3.org/1999/xlink" version="1.1" class="marks" width="846" height="673" viewBox="0 0 846 673"><rect width="846" height="673" fill="white"/><g fill="none" stroke-miterlimit="10" transform="translate(41,36)"><g class="mark-group role-frame root" role="graphics-object" aria-roledescription="group mark container"><g transform="translate(0,0)"><path class="background" aria-hidden="true" d="M0.5,0.5h800v600h-800Z" stroke="#ddd"/><g><g class="mark-group role-axis" role="graphics-symbol" aria-roledescription="axis" aria-label="X-axis titled 'Parser' for a discrete scale with 7 values: yaml_rs, PyYAML (CSafeDumper), PyYAML (CDumper), ryaml, PyYAML, oyaml, ruamel.yaml"><g transform="translate(0.5,600.5)"><path class="background" aria-hidden="true" d="M0,0h0v0h0Z" pointer-events="none"/><g><g class="mark-rule role-axis-tick" pointer-events="none"><line transform="translate(57,0)" x2="0" y2="5" stroke="#888" stroke-width="1" opacity="1"/><line transform="translate(171,0)" x2="0" y2="5" stroke="#888" stroke-width="1" opacity="1"/><line transform="translate(285,0)" x2="0" y2="5" stroke="#888" stroke-width="1" opacity="1"/><line transform="translate(400,0)" x2="0" y2="5" stroke="#888" stroke-width="1" opacity="1"/><line transform="translate(514,0)" x2="0" y2="5" stroke="#888" stroke-width="1" opacity="1"/><line transform="translate(628,0)" x2="0" y2="5" stroke="#888" stroke-width="1" opacity="1"/><line transform="translate(742,0)" x2="0" y2="5" stroke="#888" stroke-width="1" opacity="1"/></g><g class="mark-text role-axis-label" pointer-events="none"><text text-anchor="middle" transform="translate(56.642857142857096,15)" font-family="sans-serif" font-size="10px" fill="#000" opacity="1">yaml_rs</text><text text-anchor="middle" transform="translate(170.9285714285714,15)" font-family="sans-serif" font-size="10px" fill="#000" opacity="1">PyYAML (CSafeDumper)</text><text text-anchor="middle" transform="translate(285.21428571428567,15)" font-family="sans-serif" font-size="10px" fill="#000" opacity="1">PyYAML (CDumper)</text><text text-anchor="middle" transform="translate(399.5,15)" font-family="sans-serif" font-size="10px" fill="#000" opacity="1">ryaml</text><text text-anchor="middle" transform="translate(513.7857142857142,15)" font-family="sans-serif" font-size="10px" fill="#000" opacity="1">PyYAML</text><text text-anchor="middle" transform="translate(628.0714285714286,15)" font-family="sans-serif" font-size="10px" fill="#000" opacity="1">oyaml</text><text text-anchor="middle" transform="translate(742.3571428571429,15)" font-family="sans-serif" font-size="10px" fill="#000" opacity="1">ruamel.yaml</text></g><g class="mark-rule role-axis-domain" pointer-events="none"><line transform="translate(0,0)" x2="800" y2="0" stroke="#888" stroke-width="1" opacity="1"/></g><g class="mark-text role-axis-title" pointer-events="none"><text text-anchor="middle" transform="translate(400,30)" font-family="sans-serif" font-size="11px" font-weight="bold" fill="#000" opacity="1">Parser</text></g></g><path class="foreground" aria-hidden="true" d="" pointer-events="none" display="none"/></g></g><g class="mark-group role-axis" role="graphics-symbol" aria-roledescription="axis" aria-label="Y-axis titled 'Execution Time (seconds, lower=better)' for a linear scale with values from 0 to 9"><g transform="translate(0.5,0.5)"><path class="background" aria-hidden="true" d="M0,0h0v0h0Z" pointer-events="none"/><g><g class="mark-rule role-axis-tick" pointer-events="none"><line transform="translate(0,600)" x2="-5" y2="0" stroke="#888" stroke-width="1" opacity="1"/><line transform="translate(0,567)" x2="-5" y2="0" stroke="#888" stroke-width="1" opacity="1"/><line transform="translate(0,534)" x2="-5" y2="0" stroke="#888" stroke-width="1" opacity="1"/><line transform="translate(0,501)" x2="-5" y2="0" stroke="#888" stroke-width="1" opacity="1"/><line transform="translate(0,468)" x2="-5" y2="0" stroke="#888" stroke-width="1" opacity="1"/><line transform="translate(0,435)" x2="-5" y2="0" stroke="#888" stroke-width="1" opacity="1"/><line transform="translate(0,403)" x2="-5" y2="0" stroke="#888" stroke-width="1" opacity="1"/><line transform="translate(0,370)" x2="-5" y2="0" stroke="#888" stroke-width="1" opacity="1"/><line transform="translate(0,337)" x2="-5" y2="0" stroke="#888" stroke-width="1" opacity="1"/><line transform="translate(0,304)" x2="-5" y2="0" stroke="#888" stroke-width="1" opacity="1"/><line transform="translate(0,271)" x2="-5" y2="0" stroke="#888" stroke-width="1" opacity="1"/><line transform="translate(0,238)" x2="-5" y2="0" stroke="#888" stroke-width="1" opacity="1"/><line transform="translate(0,205)" x2="-5" y2="0" stroke="#888" stroke-width="1" opacity="1"/><line transform="translate(0,172)" x2="-5" y2="0" stroke="#888" stroke-width="1" opacity="1"/><line transform="translate(0,139)" x2="-5" y2="0" stroke="#888" stroke-width="1" opacity="1"/><line transform="translate(0,106)" x2="-5" y2="0" stroke="#888" stroke-width="1" opacity="1"/><line transform="translate(0,74)" x2="-5" y2="0" stroke="#888" stroke-width="1" opacity="1"/><line transform="translate(0,41)" x2="-5" y2="0" stroke="#888" stroke-width="1" opacity="1"/><line transform="translate(0,8)" x2="-5" y2="0" stroke="#888" stroke-width="1" opacity="1"/></g><g class="mark-text role-axis-label" pointer-events="none"><text text-anchor="end" transform="translate(-7,603)" font-family="sans-serif" font-size="10px" fill="#000" opacity="1">0.0</text><text text-anchor="end" transform="translate(-7,570.0995194285485)" font-family="sans-serif" font-size="10px" fill="#000" opacity="1">0.5</text><text text-anchor="end" transform="translate(-7,537.1990388570972)" font-family="sans-serif" font-size="10px" fill="#000" opacity="1">1.0</text><text text-anchor="end" transform="translate(-7,504.29855828564587)" font-family="sans-serif" font-size="10px" fill="#000" opacity="1">1.5</text><text text-anchor="end" transform="translate(-7,471.3980777141945)" font-family="sans-serif" font-size="10px" fill="#000" opacity="1">2.0</text><text text-anchor="end" transform="translate(-7,438.4975971427431)" font-family="sans-serif" font-size="10px" fill="#000" opacity="1">2.5</text><text text-anchor="end" transform="translate(-7,405.5971165712917)" font-family="sans-serif" font-size="10px" fill="#000" opacity="1">3.0</text><text text-anchor="end" transform="translate(-7,372.6966359998403)" font-family="sans-serif" font-size="10px" fill="#000" opacity="1">3.5</text><text text-anchor="end" transform="translate(-7,339.79615542838894)" font-family="sans-serif" font-size="10px" fill="#000" opacity="1">4.0</text><text text-anchor="end" transform="translate(-7,306.8956748569376)" font-family="sans-serif" font-size="10px" fill="#000" opacity="1">4.5</text><text text-anchor="end" transform="translate(-7,273.9951942854862)" font-family="sans-serif" font-size="10px" fill="#000" opacity="1">5.0</text><text text-anchor="end" transform="translate(-7,241.09471371403478)" font-family="sans-serif" font-size="10px" fill="#000" opacity="1">5.5</text><text text-anchor="end" transform="translate(-7,208.19423314258339)" font-family="sans-serif" font-size="10px" fill="#000" opacity="1">6.0</text><text text-anchor="end" transform="translate(-7,175.29375257113205)" font-family="sans-serif" font-size="10px" fill="#000" opacity="1">6.5</text><text text-anchor="end" transform="translate(-7,142.39327199968062)" font-family="sans-serif" font-size="10px" fill="#000" opacity="1">7.0</text><text text-anchor="end" transform="translate(-7,109.4927914282293)" font-family="sans-serif" font-size="10px" fill="#000" opacity="1">7.5</text><text text-anchor="end" transform="translate(-7,76.59231085677789)" font-family="sans-serif" font-size="10px" fill="#000" opacity="1">8.0</text><text text-anchor="end" transform="translate(-7,43.69183028532648)" font-family="sans-serif" font-size="10px" fill="#000" opacity="1">8.5</text><text text-anchor="end" transform="translate(-7,10.791349713875139)" font-family="sans-serif" font-size="10px" fill="#000" opacity="1">9.0</text></g><g class="mark-rule role-axis-domain" pointer-events="none"><line transform="translate(0,600)" x2="0" y2="-600" stroke="#888" stroke-width="1" opacity="1"/></g><g class="mark-text role-axis-title" pointer-events="none"><text text-anchor="middle" transform="translate(-24.9013671875,300) rotate(-90) translate(0,-2)" font-family="sans-serif" font-size="11px" font-weight="bold" fill="#000" opacity="1">Execution Time (seconds, lower=better)</text></g></g><path class="foreground" aria-hidden="true" d="" pointer-events="none" display="none"/></g></g><g class="mark-group role-scope" role="graphics-object" aria-roledescription="group mark container"><g transform="translate(5.714285714285666,597.7048132781316)"><path class="background" aria-hidden="true" d="M1.147593360934195,0L101.70954949620867,0C102.34292351411781,0,102.85714285714286,0.514219343025047,102.85714285714286,1.147593360934195L102.85714285714286,2.29518672186839C102.85714285714286,2.29518672186839,102.85714285714286,2.29518672186839,102.85714285714286,2.29518672186839L0,2.29518672186839C0,2.29518672186839,0,2.29518672186839,0,2.29518672186839L0,1.147593360934195C0,0.514219343025047,0.514219343025047,0,1.147593360934195,0Z"/><g clip-path="url(#clip9)"><g class="mark-group role-scope" role="graphics-object" aria-roledescription="group mark container"><g transform="translate(0,-597.7048132781316)"><path class="background" aria-hidden="true" d="M0,0h102.85714285714286v0h-102.85714285714286Z"/><g><g class="mark-rect role-mark layer_0_marks" role="graphics-object" aria-roledescription="rect mark container"><path aria-label="Parser: yaml_rs; Execution Time (seconds, lower=better): 0.034880747667; parser: yaml_rs; Execution Time (s): 0.0349; Slowdown: 1.00" role="graphics-symbol" aria-roledescription="bar" d="M0,597.7048132781316h102.85714285714286v2.29518672186839h-102.85714285714286Z" fill="#a6761d"/></g></g><path class="foreground" aria-hidden="true" d="" display="none"/></g></g></g><path class="foreground" aria-hidden="true" d="" display="none"/></g><g transform="translate(119.99999999999996,589.4190076065455)"><path class="background" aria-hidden="true" d="M5.290496196727247,0L97.56664666041561,0C100.48655099841774,0,102.85714285714286,2.3705918587251147,102.85714285714286,5.290496196727247L102.85714285714286,10.580992393454494C102.85714285714286,10.580992393454494,102.85714285714286,10.580992393454494,102.85714285714286,10.580992393454494L0,10.580992393454494C0,10.580992393454494,0,10.580992393454494,0,10.580992393454494L0,5.290496196727247C0,2.3705918587251147,2.3705918587251147,0,5.290496196727247,0Z"/><g clip-path="url(#clip10)"><g class="mark-group role-scope" role="graphics-object" aria-roledescription="group mark container"><g transform="translate(0,-589.4190076065455)"><path class="background" aria-hidden="true" d="M0,0h102.85714285714286v0h-102.85714285714286Z"/><g><g class="mark-rect role-mark layer_0_marks" role="graphics-object" aria-roledescription="rect mark container"><path aria-label="Parser: PyYAML (CSafeDumper); Execution Time (seconds, lower=better): 0.160803006668; parser: PyYAML (CSafeDumper); Execution Time (s): 0.1608; Slowdown: 4.61" role="graphics-symbol" aria-roledescription="bar" d="M0,589.4190076065455h102.85714285714286v10.580992393454494h-102.85714285714286Z" fill="#7570b3"/></g></g><path class="foreground" aria-hidden="true" d="" display="none"/></g></g></g><path class="foreground" aria-hidden="true" d="" display="none"/></g><g transform="translate(234.28571428571425,589.3849452128144)"><path class="background" aria-hidden="true" d="M5.307527393592807,0L97.54961546355005,0C100.4789195749874,0,102.85714285714286,2.378223282155457,102.85714285714286,5.307527393592807L102.85714285714286,10.615054787185613C102.85714285714286,10.615054787185613,102.85714285714286,10.615054787185613,102.85714285714286,10.615054787185613L0,10.615054787185613C0,10.615054787185613,0,10.615054787185613,0,10.615054787185613L0,5.307527393592807C0,2.378223282155457,2.378223282155457,0,5.307527393592807,0Z"/><g clip-path="url(#clip11)"><g class="mark-group role-scope" role="graphics-object" aria-roledescription="group mark container"><g transform="translate(0,-589.3849452128144)"><path class="background" aria-hidden="true" d="M0,0h102.85714285714286v0h-102.85714285714286Z"/><g><g class="mark-rect role-mark layer_0_marks" role="graphics-object" aria-roledescription="rect mark container"><path aria-label="Parser: PyYAML (CDumper); Execution Time (seconds, lower=better): 0.161320664665; parser: PyYAML (CDumper); Execution Time (s): 0.1613; Slowdown: 4.62" role="graphics-symbol" aria-roledescription="bar" d="M0,589.3849452128144h102.85714285714286v10.615054787185613h-102.85714285714286Z" fill="#d95f02"/></g></g><path class="foreground" aria-hidden="true" d="" display="none"/></g></g></g><path class="foreground" aria-hidden="true" d="" display="none"/></g><g transform="translate(348.57142857142856,585.5932307156273)"><path class="background" aria-hidden="true" d="M6,0L96.85714285714286,0C100.16863300410687,0,102.85714285714286,2.688509853036,102.85714285714286,6L102.85714285714286,14.406769284372672C102.85714285714286,14.406769284372672,102.85714285714286,14.406769284372672,102.85714285714286,14.406769284372672L0,14.406769284372672C0,14.406769284372672,0,14.406769284372672,0,14.406769284372672L0,6C0,2.688509853036,2.688509853036,0,6,0Z"/><g clip-path="url(#clip12)"><g class="mark-group role-scope" role="graphics-object" aria-roledescription="group mark container"><g transform="translate(0,-585.5932307156273)"><path class="background" aria-hidden="true" d="M0,0h102.85714285714286v0h-102.85714285714286Z"/><g><g class="mark-rect role-mark layer_0_marks" role="graphics-object" aria-roledescription="rect mark container"><path aria-label="Parser: ryaml; Execution Time (seconds, lower=better): 0.218944663332; parser: ryaml; Execution Time (s): 0.2189; Slowdown: 6.28" role="graphics-symbol" aria-roledescription="bar" d="M0,585.5932307156273h102.85714285714286v14.406769284372672h-102.85714285714286Z" fill="#e6ab02"/></g></g><path class="foreground" aria-hidden="true" d="" display="none"/></g></g></g><path class="foreground" aria-hidden="true" d="" display="none"/></g><g transform="translate(462.85714285714283,50.147359135152804)"><path class="background" aria-hidden="true" d="M6,0L96.85714285714286,0C100.16863300410687,0,102.85714285714286,2.688509853036,102.85714285714286,6L102.85714285714286,549.8526408648472C102.85714285714286,549.8526408648472,102.85714285714286,549.8526408648472,102.85714285714286,549.8526408648472L0,549.8526408648472C0,549.8526408648472,0,549.8526408648472,0,549.8526408648472L0,6C0,2.688509853036,2.688509853036,0,6,0Z"/><g clip-path="url(#clip13)"><g class="mark-group role-scope" role="graphics-object" aria-roledescription="group mark container"><g transform="translate(0,-50.147359135152804)"><path class="background" aria-hidden="true" d="M0,0h102.85714285714286v0h-102.85714285714286Z"/><g><g class="mark-rect role-mark layer_0_marks" role="graphics-object" aria-roledescription="rect mark container"><path aria-label="Parser: PyYAML; Execution Time (seconds, lower=better): 8.35630105267; parser: PyYAML; Execution Time (s): 8.3563; Slowdown: 239.57" role="graphics-symbol" aria-roledescription="bar" d="M0,50.147359135152804h102.85714285714286v549.8526408648472h-102.85714285714286Z" fill="#1b9e77"/></g></g><path class="foreground" aria-hidden="true" d="" display="none"/></g></g></g><path class="foreground" aria-hidden="true" d="" display="none"/></g><g transform="translate(577.1428571428571,49.37468057934247)"><path class="background" aria-hidden="true" d="M6,0L96.85714285714286,0C100.16863300410687,0,102.85714285714286,2.688509853036,102.85714285714286,6L102.85714285714286,550.6253194206575C102.85714285714286,550.6253194206575,102.85714285714286,550.6253194206575,102.85714285714286,550.6253194206575L0,550.6253194206575C0,550.6253194206575,0,550.6253194206575,0,550.6253194206575L0,6C0,2.688509853036,2.688509853036,0,6,0Z"/><g clip-path="url(#clip14)"><g class="mark-group role-scope" role="graphics-object" aria-roledescription="group mark container"><g transform="translate(0,-49.37468057934247)"><path class="background" aria-hidden="true" d="M0,0h102.85714285714286v0h-102.85714285714286Z"/><g><g class="mark-rect role-mark layer_0_marks" role="graphics-object" aria-roledescription="rect mark container"><path aria-label="Parser: oyaml; Execution Time (seconds, lower=better): 8.36804371633; parser: oyaml; Execution Time (s): 8.3680; Slowdown: 239.90" role="graphics-symbol" aria-roledescription="bar" d="M0,49.37468057934247h102.85714285714286v550.6253194206575h-102.85714285714286Z" fill="#e7298a"/></g></g><path class="foreground" aria-hidden="true" d="" display="none"/></g></g></g><path class="foreground" aria-hidden="true" d="" display="none"/></g><g transform="translate(691.4285714285714,23.07692307692313)"><path class="background" aria-hidden="true" d="M6,0L96.85714285714286,0C100.16863300410687,0,102.85714285714286,2.688509853036,102.85714285714286,6L102.85714285714286,576.9230769230769C102.85714285714286,576.9230769230769,102.85714285714286,576.9230769230769,102.85714285714286,576.9230769230769L0,576.9230769230769C0,576.9230769230769,0,576.9230769230769,0,576.9230769230769L0,6C0,2.688509853036,2.688509853036,0,6,0Z"/><g clip-path="url(#clip15)"><g class="mark-group role-scope" role="graphics-object" aria-roledescription="group mark container"><g transform="translate(0,-23.07692307692313)"><path class="background" aria-hidden="true" d="M0,0h102.85714285714286v0h-102.85714285714286Z"/><g><g class="mark-rect role-mark layer_0_marks" role="graphics-object" aria-roledescription="rect mark container"><path aria-label="Parser: ruamel.yaml; Execution Time (seconds, lower=better): 8.76769984667; parser: ruamel.yaml; Execution Time (s): 8.7677; Slowdown: 251.36" role="graphics-symbol" aria-roledescription="bar" d="M0,23.07692307692313h102.85714285714286v576.9230769230769h-102.85714285714286Z" fill="#66a61e"/></g></g><path class="foreground" aria-hidden="true" d="" display="none"/></g></g></g><path class="foreground" aria-hidden="true" d="" display="none"/></g></g><g class="mark-text role-mark layer_1_marks" role="graphics-object" aria-roledescription="text mark container"><text aria-label="Parser: yaml_rs; Execution Time (seconds, lower=better): 0.034880747667; parser: yaml_rs; label: 0.0349s (x1.00); Execution Time (s): 0.0349; Slowdown: 1.00" role="graphics-symbol" aria-roledescription="text mark" text-anchor="middle" transform="translate(57.142857142857096,593.7048132781316)" font-family="sans-serif" font-size="9px" font-weight="bold" fill="#a6761d">0.0349s (x1.00)</text><text aria-label="Parser: PyYAML (CSafeDumper); Execution Time (seconds, lower=better): 0.160803006668; parser: PyYAML (CSafeDumper); label: 0.1608s (x4.61); Execution Time (s): 0.1608; Slowdown: 4.61" role="graphics-symbol" aria-roledescription="text mark" text-anchor="middle" transform="translate(171.4285714285714,585.4190076065455)" font-family="sans-serif" font-size="9px" font-weight="bold" fill="#7570b3">0.1608s (x4.61)</text><text aria-label="Parser: PyYAML (CDumper); Execution Time (seconds, lower=better): 0.161320664665; parser: PyYAML (CDumper); label: 0.1613s (x4.62); Execution Time (s): 0.1613; Slowdown: 4.62" role="graphics-symbol" aria-roledescription="text mark" text-anchor="middle" transform="translate(285.71428571428567,585.3849452128144)" font-family="sans-serif" font-size="9px" font-weight="bold" fill="#d95f02">0.1613s (x4.62)</text><text aria-label="Parser: ryaml; Execution Time (seconds, lower=better): 0.218944663332; parser: ryaml; label: 0.2189s (x6.28); Execution Time (s): 0.2189; Slowdown: 6.28" role="graphics-symbol" aria-roledescription="text mark" text-anchor="middle" transform="translate(400,581.5932307156273)" font-family="sans-serif" font-size="9px" font-weight="bold" fill="#e6ab02">0.2189s (x6.28)</text><text aria-label="Parser: PyYAML; Execution Time (seconds, lower=better): 8.35630105267; parser: PyYAML; label: 8.3563s (x239.57); Execution Time (s): 8.3563; Slowdown: 239.57" role="graphics-symbol" aria-roledescription="text mark" text-anchor="middle" transform="translate(514.2857142857142,46.147359135152804)" font-family="sans-serif" font-size="9px" font-weight="bold" fill="#1b9e77">8.3563s (x239.57)</text><text aria-label="Parser: oyaml; Execution Time (seconds, lower=better): 8.36804371633; parser: oyaml; label: 8.3680s (x239.90); Execution Time (s): 8.3680; Slowdown: 239.90" role="graphics-symbol" aria-roledescription="text mark" text-anchor="middle" transform="translate(628.5714285714286,45.37468057934247)" font-family="sans-serif" font-size="9px" font-weight="bold" fill="#e7298a">8.3680s (x239.90)</text><text aria-label="Parser: ruamel.yaml; Execution Time (seconds, lower=better): 8.76769984667; parser: ruamel.yaml; label: 8.7677s (x251.36); Execution Time (s): 8.7677; Slowdown: 251.36" role="graphics-symbol" aria-roledescription="text mark" text-anchor="middle" transform="translate(742.8571428571429,19.07692307692313)" font-family="sans-serif" font-size="9px" font-weight="bold" fill="#66a61e">8.7677s (x251.36)</text></g><g class="mark-group role-title"><g transform="translate(400,-31)"><path class="background" aria-hidden="true" d="M0,0h0v0h0Z" pointer-events="none"/><g><g class="mark-text role-title-text" role="graphics-symbol" aria-roledescription="title" aria-label="Title text 'YAML parsers benchmark (dumps)'" pointer-events="none"><text text-anchor="middle" transform="translate(0,10)" font-family="sans-serif" font-size="13px" font-weight="bold" fill="#000" opacity="1">YAML parsers benchmark (dumps)</text></g><g class="mark-text role-title-subtitle" role="graphics-symbol" aria-roledescription="subtitle" aria-label="Subtitle text 'Python: 3.14.0 (Linux 6.17.7-ba25.fc43.x86_64) | CPU: AMD Ryzen 9 9950X 16-Core Processor'" pointer-events="none"><text text-anchor="middle" transform="translate(0,25)" font-family="sans-serif" font-size="12px" fill="#000" opacity="1">Python: 3.14.0 (Linux 6.17.7-ba25.fc43.x86_64) | CPU: AMD Ryzen 9 9950X 16-Core Processor</text></g></g><path class="foreground" aria-hidden="true" d="" pointer-events="none" display="none"/></g></g></g><path class="foreground" aria-hidden="true" d="" display="none"/></g></g></g><defs><clipPath id="clip9"><path d="M1.147593360934195,0L101.70954949620867,0C102.34292351411781,0,102.85714285714286,0.514219343025047,102.85714285714286,1.147593360934195L102.85714285714286,2.29518672186839C102.85714285714286,2.29518672186839,102.85714285714286,2.29518672186839,102.85714285714286,2.29518672186839L0,2.29518672186839C0,2.29518672186839,0,2.29518672186839,0,2.29518672186839L0,1.147593360934195C0,0.514219343025047,0.514219343025047,0,1.147593360934195,0Z"/></clipPath><clipPath id="clip10"><path d="M5.290496196727247,0L97.56664666041561,0C100.48655099841774,0,102.85714285714286,2.3705918587251147,102.85714285714286,5.290496196727247L102.85714285714286,10.580992393454494C102.85714285714286,10.580992393454494,102.85714285714286,10.580992393454494,102.85714285714286,10.580992393454494L0,10.580992393454494C0,10.580992393454494,0,10.580992393454494,0,10.580992393454494L0,5.290496196727247C0,2.3705918587251147,2.3705918587251147,0,5.290496196727247,0Z"/></clipPath><clipPath id="clip11"><path d="M5.307527393592807,0L97.54961546355005,0C100.4789195749874,0,102.85714285714286,2.378223282155457,102.85714285714286,5.307527393592807L102.85714285714286,10.615054787185613C102.85714285714286,10.615054787185613,102.85714285714286,10.615054787185613,102.85714285714286,10.615054787185613L0,10.615054787185613C0,10.615054787185613,0,10.615054787185613,0,10.615054787185613L0,5.307527393592807C0,2.378223282155457,2.378223282155457,0,5.307527393592807,0Z"/></clipPath><clipPath id="clip12"><path d="M6,0L96.85714285714286,0C100.16863300410687,0,102.85714285714286,2.688509853036,102.85714285714286,6L102.85714285714286,14.406769284372672C102.85714285714286,14.406769284372672,102.85714285714286,14.406769284372672,102.85714285714286,14.406769284372672L0,14.406769284372672C0,14.406769284372672,0,14.406769284372672,0,14.406769284372672L0,6C0,2.688509853036,2.688509853036,0,6,0Z"/></clipPath><clipPath id="clip13"><path d="M6,0L96.85714285714286,0C100.16863300410687,0,102.85714285714286,2.688509853036,102.85714285714286,6L102.85714285714286,549.8526408648472C102.85714285714286,549.8526408648472,102.85714285714286,549.8526408648472,102.85714285714286,549.8526408648472L0,549.8526408648472C0,549.8526408648472,0,549.8526408648472,0,549.8526408648472L0,6C0,2.688509853036,2.688509853036,0,6,0Z"/></clipPath><clipPath id="clip14"><path d="M6,0L96.85714285714286,0C100.16863300410687,0,102.85714285714286,2.688509853036,102.85714285714286,6L102.85714285714286,550.6253194206575C102.85714285714286,550.6253194206575,102.85714285714286,550.6253194206575,102.85714285714286,550.6253194206575L0,550.6253194206575C0,550.6253194206575,0,550.6253194206575,0,550.6253194206575L0,6C0,2.688509853036,2.688509853036,0,6,0Z"/></clipPath><clipPath id="clip15"><path d="M6,0L96.85714285714286,0C100.16863300410687,0,102.85714285714286,2.688509853036,102.85714285714286,6L102.85714285714286,576.9230769230769C102.85714285714286,576.9230769230769,102.85714285714286,576.9230769230769,102.85714285714286,576.9230769230769L0,576.9230769230769C0,576.9230769230769,0,576.9230769230769,0,576.9230769230769L0,6C0,2.688509853036,2.688509853036,0,6,0Z"/></clipPath></defs></svg>
