<svg xmlns="http://www.w3.org/2000/svg" xmlns:xlink="http://www.w3.org/1999/xlink" version="1.1" class="marks" width="846" height="673" viewBox="0 0 846 673"><rect width="846" height="673" fill="white"/><g fill="none" stroke-miterlimit="10" transform="translate(41,36)"><g class="mark-group role-frame root" role="graphics-object" aria-roledescription="group mark container"><g transform="translate(0,0)"><path class="background" aria-hidden="true" d="M0.5,0.5h800v600h-800Z" stroke="#ddd"/><g><g class="mark-group role-axis" role="graphics-symbol" aria-roledescription="axis" aria-label="X-axis titled 'Parser' for a discrete scale with 7 values: yaml_rs, PyYAML (CDumper), PyYAML (CSafeDumper), ryaml, PyYAML, oyaml, ruamel.yaml"><g transform="translate(0.5,600.5)"><path class="background" aria-hidden="true" d="M0,0h0v0h0Z" pointer-events="none"/><g><g class="mark-rule role-axis-tick" pointer-events="none"><line transform="translate(57,0)" x2="0" y2="5" stroke="#888" stroke-width="1" opacity="1"/><line transform="translate(171,0)" x2="0" y2="5" stroke="#888" stroke-width="1" opacity="1"/><line transform="translate(285,0)" x2="0" y2="5" stroke="#888" stroke-width="1" opacity="1"/><line transform="translate(400,0)" x2="0" y2="5" stroke="#888" stroke-width="1" opacity="1"/><line transform="translate(514,0)" x2="0" y2="5" stroke="#888" stroke-width="1" opacity="1"/><line transform="translate(628,0)" x2="0" y2="5" stroke="#888" stroke-width="1" opacity="1"/><line transform="translate(742,0)" x2="0" y2="5" stroke="#888" stroke-width="1" opacity="1"/></g><g class="mark-text role-axis-label" pointer-events="none"><text text-anchor="middle" transform="translate(56.642857142857096,15)" font-family="sans-serif" font-size="10px" fill="#000" opacity="1">yaml_rs</text><text text-anchor="middle" transform="translate(170.9285714285714,15)" font-family="sans-serif" font-size="10px" fill="#000" opacity="1">PyYAML (CDumper)</text><text text-anchor="middle" transform="translate(285.21428571428567,15)" font-family="sans-serif" font-size="10px" fill="#000" opacity="1">PyYAML (CSafeDumper)</text><text text-anchor="middle" transform="translate(399.5,15)" font-family="sans-serif" font-size="10px" fill="#000" opacity="1">ryaml</text><text text-anchor="middle" transform="translate(513.7857142857142,15)" font-family="sans-serif" font-size="10px" fill="#000" opacity="1">PyYAML</text><text text-anchor="middle" transform="translate(628.0714285714286,15)" font-family="sans-serif" font-size="10px" fill="#000" opacity="1">oyaml</text><text text-anchor="middle" transform="translate(742.3571428571429,15)" font-family="sans-serif" font-size="10px" fill="#000" opacity="1">ruamel.yaml</text></g><g class="mark-rule role-axis-domain" pointer-events="none"><line transform="translate(0,0)" x2="800" y2="0" stroke="#888" stroke-width="1" opacity="1"/></g><g class="mark-text role-axis-title" pointer-events="none"><text text-anchor="middle" transform="translate(400,30)" font-family="sans-serif" font-size="11px" font-weight="bold" fill="#000" opacity="1">Parser</text></g></g><path class="foreground" aria-hidden="true" d="" pointer-events="none" display="none"/></g></g><g class="mark-group role-axis" role="graphics-symbol" aria-roledescription="axis" aria-label="Y-axis titled 'Execution Time (seconds, lower=better)' for a linear scale with values from 0 to 9"><g transform="translate(0.5,0.5)"><path class="background" aria-hidden="true" d="M0,0h0v0h0Z" pointer-events="none"/><g><g class="mark-rule role-axis-tick" pointer-events="none"><line transform="translate(0,600)" x2="-5" y2="0" stroke="#888" stroke-width="1" opacity="1"/><line transform="translate(0,567)" x2="-5" y2="0" stroke="#888" stroke-width="1" opacity="1"/><line transform="translate(0,535)" x2="-5" y2="0" stroke="#888" stroke-width="1" opacity="1"/><line transform="translate(0,502)" x2="-5" y2="0" stroke="#888" stroke-width="1" opacity="1"/><line transform="translate(0,469)" x2="-5" y2="0" stroke="#888" stroke-width="1" opacity="1"/><line transform="translate(0,437)" x2="-5" y2="0" stroke="#888" stroke-width="1" opacity="1"/><line transform="translate(0,404)" x2="-5" y2="0" stroke="#888" stroke-width="1" opacity="1"/><line transform="translate(0,371)" x2="-5" y2="0" stroke="#888" stroke-width="1" opacity="1"/><line transform="translate(0,339)" x2="-5" y2="0" stroke="#888" stroke-width="1" opacity="1"/><line transform="translate(0,306)" x2="-5" y2="0" stroke="#888" stroke-width="1" opacity="1"/><line transform="translate(0,273)" x2="-5" y2="0" stroke="#888" stroke-width="1" opacity="1"/><line transform="translate(0,240)" x2="-5" y2="0" stroke="#888" stroke-width="1" opacity="1"/><line transform="translate(0,208)" x2="-5" y2="0" stroke="#888" stroke-width="1" opacity="1"/><line transform="translate(0,175)" x2="-5" y2="0" stroke="#888" stroke-width="1" opacity="1"/><line transform="translate(0,142)" x2="-5" y2="0" stroke="#888" stroke-width="1" opacity="1"/><line transform="translate(0,110)" x2="-5" y2="0" stroke="#888" stroke-width="1" opacity="1"/><line transform="translate(0,77)" x2="-5" y2="0" stroke="#888" stroke-width="1" opacity="1"/><line transform="translate(0,44)" x2="-5" y2="0" stroke="#888" stroke-width="1" opacity="1"/><line transform="translate(0,12)" x2="-5" y2="0" stroke="#888" stroke-width="1" opacity="1"/></g><g class="mark-text role-axis-label" pointer-events="none"><text text-anchor="end" transform="translate(-7,603)" font-family="sans-serif" font-size="10px" fill="#000" opacity="1">0.0</text><text text-anchor="end" transform="translate(-7,570.3176744678381)" font-family="sans-serif" font-size="10px" fill="#000" opacity="1">0.5</text><text text-anchor="end" transform="translate(-7,537.6353489356762)" font-family="sans-serif" font-size="10px" fill="#000" opacity="1">1.0</text><text text-anchor="end" transform="translate(-7,504.95302340351424)" font-family="sans-serif" font-size="10px" fill="#000" opacity="1">1.5</text><text text-anchor="end" transform="translate(-7,472.2706978713523)" font-family="sans-serif" font-size="10px" fill="#000" opacity="1">2.0</text><text text-anchor="end" transform="translate(-7,439.58837233919036)" font-family="sans-serif" font-size="10px" fill="#000" opacity="1">2.5</text><text text-anchor="end" transform="translate(-7,406.9060468070284)" font-family="sans-serif" font-size="10px" fill="#000" opacity="1">3.0</text><text text-anchor="end" transform="translate(-7,374.22372127486653)" font-family="sans-serif" font-size="10px" fill="#000" opacity="1">3.5</text><text text-anchor="end" transform="translate(-7,341.54139574270465)" font-family="sans-serif" font-size="10px" fill="#000" opacity="1">4.0</text><text text-anchor="end" transform="translate(-7,308.8590702105427)" font-family="sans-serif" font-size="10px" fill="#000" opacity="1">4.5</text><text text-anchor="end" transform="translate(-7,276.17674467838077)" font-family="sans-serif" font-size="10px" fill="#000" opacity="1">5.0</text><text text-anchor="end" transform="translate(-7,243.49441914621886)" font-family="sans-serif" font-size="10px" fill="#000" opacity="1">5.5</text><text text-anchor="end" transform="translate(-7,210.81209361405695)" font-family="sans-serif" font-size="10px" fill="#000" opacity="1">6.0</text><text text-anchor="end" transform="translate(-7,178.12976808189504)" font-family="sans-serif" font-size="10px" fill="#000" opacity="1">6.5</text><text text-anchor="end" transform="translate(-7,145.44744254973307)" font-family="sans-serif" font-size="10px" fill="#000" opacity="1">7.0</text><text text-anchor="end" transform="translate(-7,112.76511701757117)" font-family="sans-serif" font-size="10px" fill="#000" opacity="1">7.5</text><text text-anchor="end" transform="translate(-7,80.08279148540926)" font-family="sans-serif" font-size="10px" fill="#000" opacity="1">8.0</text><text text-anchor="end" transform="translate(-7,47.40046595324736)" font-family="sans-serif" font-size="10px" fill="#000" opacity="1">8.5</text><text text-anchor="end" transform="translate(-7,14.718140421085387)" font-family="sans-serif" font-size="10px" fill="#000" opacity="1">9.0</text></g><g class="mark-rule role-axis-domain" pointer-events="none"><line transform="translate(0,600)" x2="0" y2="-600" stroke="#888" stroke-width="1" opacity="1"/></g><g class="mark-text role-axis-title" pointer-events="none"><text text-anchor="middle" transform="translate(-24.9013671875,300) rotate(-90) translate(0,-2)" font-family="sans-serif" font-size="11px" font-weight="bold" fill="#000" opacity="1">Execution Time (seconds, lower=better)</text></g></g><path class="foreground" aria-hidden="true" d="" pointer-events="none" display="none"/></g></g><g class="mark-group role-scope" role="graphics-object" aria-roledescription="group mark container"><g transform="translate(5.714285714285666,597.335602280393)"><path class="background" aria-hidden="true" d="M1.3321988598034977,0L101.52494399733936,0C102.26020456367868,0,102.85714285714286,0.5969382934641714,102.85714285714286,1.3321988598034977L102.85714285714286,2.6643977196069955C102.85714285714286,2.6643977196069955,102.85714285714286,2.6643977196069955,102.85714285714286,2.6643977196069955L0,2.6643977196069955C0,2.6643977196069955,0,2.6643977196069955,0,2.6643977196069955L0,1.3321988598034977C0,0.5969382934641714,0.5969382934641714,0,1.3321988598034977,0Z"/><g clip-path="url(#clip9)"><g class="mark-group role-scope" role="graphics-object" aria-roledescription="group mark container"><g transform="translate(0,-597.335602280393)"><path class="background" aria-hidden="true" d="M0,0h102.85714285714286v0h-102.85714285714286Z"/><g><g class="mark-rect role-mark layer_0_marks" role="graphics-object" aria-roledescription="rect mark container"><path aria-label="Parser: yaml_rs; Execution Time (seconds, lower=better): 0.0407620583331; parser: yaml_rs; Execution Time (s): 0.0408; Slowdown: 1.00" role="graphics-symbol" aria-roledescription="bar" d="M0,597.335602280393h102.85714285714286v2.6643977196069955h-102.85714285714286Z" fill="#a6761d"/></g></g><path class="foreground" aria-hidden="true" d="" display="none"/></g></g></g><path class="foreground" aria-hidden="true" d="" display="none"/></g><g transform="translate(119.99999999999996,589.5330559986512)"><path class="background" aria-hidden="true" d="M5.233472000674396,0L97.62367085646846,0C100.51210268390933,0,102.85714285714286,2.345040173233524,102.85714285714286,5.233472000674396L102.85714285714286,10.466944001348793C102.85714285714286,10.466944001348793,102.85714285714286,10.466944001348793,102.85714285714286,10.466944001348793L0,10.466944001348793C0,10.466944001348793,0,10.466944001348793,0,10.466944001348793L0,5.233472000674396C0,2.345040173233524,2.345040173233524,0,5.233472000674396,0Z"/><g clip-path="url(#clip10)"><g class="mark-group role-scope" role="graphics-object" aria-roledescription="group mark container"><g transform="translate(0,-589.5330559986512)"><path class="background" aria-hidden="true" d="M0,0h102.85714285714286v0h-102.85714285714286Z"/><g><g class="mark-rect role-mark layer_0_marks" role="graphics-object" aria-roledescription="rect mark container"><path aria-label="Parser: PyYAML (CDumper); Execution Time (seconds, lower=better): 0.160131567; parser: PyYAML (CDumper); Execution Time (s): 0.1601; Slowdown: 3.93" role="graphics-symbol" aria-roledescription="bar" d="M0,589.5330559986512h102.85714285714286v10.466944001348793h-102.85714285714286Z" fill="#d95f02"/></g></g><path class="foreground" aria-hidden="true" d="" display="none"/></g></g></g><path class="foreground" aria-hidden="true" d="" display="none"/></g><g transform="translate(234.28571428571425,589.519366483709)"><path class="background" aria-hidden="true" d="M5.240316758145525,0L97.61682609899734,0C100.50903565092554,0,102.85714285714286,2.348107206217319,102.85714285714286,5.240316758145525L102.85714285714286,10.48063351629105C102.85714285714286,10.48063351629105,102.85714285714286,10.48063351629105,102.85714285714286,10.48063351629105L0,10.48063351629105C0,10.48063351629105,0,10.48063351629105,0,10.48063351629105L0,5.240316758145525C0,2.348107206217319,2.348107206217319,0,5.240316758145525,0Z"/><g clip-path="url(#clip11)"><g class="mark-group role-scope" role="graphics-object" aria-roledescription="group mark container"><g transform="translate(0,-589.519366483709)"><path class="background" aria-hidden="true" d="M0,0h102.85714285714286v0h-102.85714285714286Z"/><g><g class="mark-rect role-mark layer_0_marks" role="graphics-object" aria-roledescription="rect mark container"><path aria-label="Parser: PyYAML (CSafeDumper); Execution Time (seconds, lower=better): 0.160341; parser: PyYAML (CSafeDumper); Execution Time (s): 0.1603; Slowdown: 3.93" role="graphics-symbol" aria-roledescription="bar" d="M0,589.519366483709h102.85714285714286v10.48063351629105h-102.85714285714286Z" fill="#7570b3"/></g></g><path class="foreground" aria-hidden="true" d="" display="none"/></g></g></g><path class="foreground" aria-hidden="true" d="" display="none"/></g><g transform="translate(348.57142857142856,585.4556517919859)"><path class="background" aria-hidden="true" d="M6,0L96.85714285714286,0C100.16863300410687,0,102.85714285714286,2.688509853036,102.85714285714286,6L102.85714285714286,14.544348208014071C102.85714285714286,14.544348208014071,102.85714285714286,14.544348208014071,102.85714285714286,14.544348208014071L0,14.544348208014071C0,14.544348208014071,0,14.544348208014071,0,14.544348208014071L0,6C0,2.688509853036,2.688509853036,0,6,0Z"/><g clip-path="url(#clip12)"><g class="mark-group role-scope" role="graphics-object" aria-roledescription="group mark container"><g transform="translate(0,-585.4556517919859)"><path class="background" aria-hidden="true" d="M0,0h102.85714285714286v0h-102.85714285714286Z"/><g><g class="mark-rect role-mark layer_0_marks" role="graphics-object" aria-roledescription="rect mark container"><path aria-label="Parser: ryaml; Execution Time (seconds, lower=better): 0.222510913333; parser: ryaml; Execution Time (s): 0.2225; Slowdown: 5.46" role="graphics-symbol" aria-roledescription="bar" d="M0,585.4556517919859h102.85714285714286v14.544348208014071h-102.85714285714286Z" fill="#e6ab02"/></g></g><path class="foreground" aria-hidden="true" d="" display="none"/></g></g></g><path class="foreground" aria-hidden="true" d="" display="none"/></g><g transform="translate(462.85714285714283,53.19552966479826)"><path class="background" aria-hidden="true" d="M6,0L96.85714285714286,0C100.16863300410687,0,102.85714285714286,2.688509853036,102.85714285714286,6L102.85714285714286,546.8044703352017C102.85714285714286,546.8044703352017,102.85714285714286,546.8044703352017,102.85714285714286,546.8044703352017L0,546.8044703352017C0,546.8044703352017,0,546.8044703352017,0,546.8044703352017L0,6C0,2.688509853036,2.688509853036,0,6,0Z"/><g clip-path="url(#clip13)"><g class="mark-group role-scope" role="graphics-object" aria-roledescription="group mark container"><g transform="translate(0,-53.19552966479826)"><path class="background" aria-hidden="true" d="M0,0h102.85714285714286v0h-102.85714285714286Z"/><g><g class="mark-rect role-mark layer_0_marks" role="graphics-object" aria-roledescription="rect mark container"><path aria-label="Parser: PyYAML; Execution Time (seconds, lower=better): 8.36544617667; parser: PyYAML; Execution Time (s): 8.3654; Slowdown: 205.23" role="graphics-symbol" aria-roledescription="bar" d="M0,53.19552966479826h102.85714285714286v546.8044703352017h-102.85714285714286Z" fill="#1b9e77"/></g></g><path class="foreground" aria-hidden="true" d="" display="none"/></g></g></g><path class="foreground" aria-hidden="true" d="" display="none"/></g><g transform="translate(577.1428571428571,53.117981021009086)"><path class="background" aria-hidden="true" d="M6,0L96.85714285714286,0C100.16863300410687,0,102.85714285714286,2.688509853036,102.85714285714286,6L102.85714285714286,546.8820189789909C102.85714285714286,546.8820189789909,102.85714285714286,546.8820189789909,102.85714285714286,546.8820189789909L0,546.8820189789909C0,546.8820189789909,0,546.8820189789909,0,546.8820189789909L0,6C0,2.688509853036,2.688509853036,0,6,0Z"/><g clip-path="url(#clip14)"><g class="mark-group role-scope" role="graphics-object" aria-roledescription="group mark container"><g transform="translate(0,-53.117981021009086)"><path class="background" aria-hidden="true" d="M0,0h102.85714285714286v0h-102.85714285714286Z"/><g><g class="mark-rect role-mark layer_0_marks" role="graphics-object" aria-roledescription="rect mark container"><path aria-label="Parser: oyaml; Execution Time (seconds, lower=better): 8.366632577; parser: oyaml; Execution Time (s): 8.3666; Slowdown: 205.26" role="graphics-symbol" aria-roledescription="bar" d="M0,53.117981021009086h102.85714285714286v546.8820189789909h-102.85714285714286Z" fill="#e7298a"/></g></g><path class="foreground" aria-hidden="true" d="" display="none"/></g></g></g><path class="foreground" aria-hidden="true" d="" display="none"/></g><g transform="translate(691.4285714285714,23.07692307692313)"><path class="background" aria-hidden="true" d="M6,0L96.85714285714286,0C100.16863300410687,0,102.85714285714286,2.688509853036,102.85714285714286,6L102.85714285714286,576.9230769230769C102.85714285714286,576.9230769230769,102.85714285714286,576.9230769230769,102.85714285714286,576.9230769230769L0,576.9230769230769C0,576.9230769230769,0,576.9230769230769,0,576.9230769230769L0,6C0,2.688509853036,2.688509853036,0,6,0Z"/><g clip-path="url(#clip15)"><g class="mark-group role-scope" role="graphics-object" aria-roledescription="group mark container"><g transform="translate(0,-23.07692307692313)"><path class="background" aria-hidden="true" d="M0,0h102.85714285714286v0h-102.85714285714286Z"/><g><g class="mark-rect role-mark layer_0_marks" role="graphics-object" aria-roledescription="rect mark container"><path aria-label="Parser: ruamel.yaml; Execution Time (seconds, lower=better): 8.82622438167; parser: ruamel.yaml; Execution Time (s): 8.8262; Slowdown: 216.53" role="graphics-symbol" aria-roledescription="bar" d="M0,23.07692307692313h102.85714285714286v576.9230769230769h-102.85714285714286Z" fill="#66a61e"/></g></g><path class="foreground" aria-hidden="true" d="" display="none"/></g></g></g><path class="foreground" aria-hidden="true" d="" display="none"/></g></g><g class="mark-text role-mark layer_1_marks" role="graphics-object" aria-roledescription="text mark container"><text aria-label="Parser: yaml_rs; Execution Time (seconds, lower=better): 0.0407620583331; parser: yaml_rs; label: 0.0408s (x1.00); Execution Time (s): 0.0408; Slowdown: 1.00" role="graphics-symbol" aria-roledescription="text mark" text-anchor="middle" transform="translate(57.142857142857096,593.335602280393)" font-family="sans-serif" font-size="9px" font-weight="bold" fill="#a6761d">0.0408s (x1.00)</text><text aria-label="Parser: PyYAML (CDumper); Execution Time (seconds, lower=better): 0.160131567; parser: PyYAML (CDumper); label: 0.1601s (x3.93); Execution Time (s): 0.1601; Slowdown: 3.93" role="graphics-symbol" aria-roledescription="text mark" text-anchor="middle" transform="translate(171.4285714285714,585.5330559986512)" font-family="sans-serif" font-size="9px" font-weight="bold" fill="#d95f02">0.1601s (x3.93)</text><text aria-label="Parser: PyYAML (CSafeDumper); Execution Time (seconds, lower=better): 0.160341; parser: PyYAML (CSafeDumper); label: 0.1603s (x3.93); Execution Time (s): 0.1603; Slowdown: 3.93" role="graphics-symbol" aria-roledescription="text mark" text-anchor="middle" transform="translate(285.71428571428567,585.519366483709)" font-family="sans-serif" font-size="9px" font-weight="bold" fill="#7570b3">0.1603s (x3.93)</text><text aria-label="Parser: ryaml; Execution Time (seconds, lower=better): 0.222510913333; parser: ryaml; label: 0.2225s (x5.46); Execution Time (s): 0.2225; Slowdown: 5.46" role="graphics-symbol" aria-roledescription="text mark" text-anchor="middle" transform="translate(400,581.4556517919859)" font-family="sans-serif" font-size="9px" font-weight="bold" fill="#e6ab02">0.2225s (x5.46)</text><text aria-label="Parser: PyYAML; Execution Time (seconds, lower=better): 8.36544617667; parser: PyYAML; label: 8.3654s (x205.23); Execution Time (s): 8.3654; Slowdown: 205.23" role="graphics-symbol" aria-roledescription="text mark" text-anchor="middle" transform="translate(514.2857142857142,49.19552966479826)" font-family="sans-serif" font-size="9px" font-weight="bold" fill="#1b9e77">8.3654s (x205.23)</text><text aria-label="Parser: oyaml; Execution Time (seconds, lower=better): 8.366632577; parser: oyaml; label: 8.3666s (x205.26); Execution Time (s): 8.3666; Slowdown: 205.26" role="graphics-symbol" aria-roledescription="text mark" text-anchor="middle" transform="translate(628.5714285714286,49.117981021009086)" font-family="sans-serif" font-size="9px" font-weight="bold" fill="#e7298a">8.3666s (x205.26)</text><text aria-label="Parser: ruamel.yaml; Execution Time (seconds, lower=better): 8.82622438167; parser: ruamel.yaml; label: 8.8262s (x216.53); Execution Time (s): 8.8262; Slowdown: 216.53" role="graphics-symbol" aria-roledescription="text mark" text-anchor="middle" transform="translate(742.8571428571429,19.07692307692313)" font-family="sans-serif" font-size="9px" font-weight="bold" fill="#66a61e">8.8262s (x216.53)</text></g><g class="mark-group role-title"><g transform="translate(400,-31)"><path class="background" aria-hidden="true" d="M0,0h0v0h0Z" pointer-events="none"/><g><g class="mark-text role-title-text" role="graphics-symbol" aria-roledescription="title" aria-label="Title text 'YAML parsers benchmark (dumps)'" pointer-events="none"><text text-anchor="middle" transform="translate(0,10)" font-family="sans-serif" font-size="13px" font-weight="bold" fill="#000" opacity="1">YAML parsers benchmark (dumps)</text></g><g class="mark-text role-title-subtitle" role="graphics-symbol" aria-roledescription="subtitle" aria-label="Subtitle text 'Python: 3.14.0 (Linux 6.17.7-ba25.fc43.x86_64) | CPU: AMD Ryzen 9 9950X 16-Core Processor'" pointer-events="none"><text text-anchor="middle" transform="translate(0,25)" font-family="sans-serif" font-size="12px" fill="#000" opacity="1">Python: 3.14.0 (Linux 6.17.7-ba25.fc43.x86_64) | CPU: AMD Ryzen 9 9950X 16-Core Processor</text></g></g><path class="foreground" aria-hidden="true" d="" pointer-events="none" display="none"/></g></g></g><path class="foreground" aria-hidden="true" d="" display="none"/></g></g></g><defs><clipPath id="clip9"><path d="M1.3321988598034977,0L101.52494399733936,0C102.26020456367868,0,102.85714285714286,0.5969382934641714,102.85714285714286,1.3321988598034977L102.85714285714286,2.6643977196069955C102.85714285714286,2.6643977196069955,102.85714285714286,2.6643977196069955,102.85714285714286,2.6643977196069955L0,2.6643977196069955C0,2.6643977196069955,0,2.6643977196069955,0,2.6643977196069955L0,1.3321988598034977C0,0.5969382934641714,0.5969382934641714,0,1.3321988598034977,0Z"/></clipPath><clipPath id="clip10"><path d="M5.233472000674396,0L97.62367085646846,0C100.51210268390933,0,102.85714285714286,2.345040173233524,102.85714285714286,5.233472000674396L102.85714285714286,10.466944001348793C102.85714285714286,10.466944001348793,102.85714285714286,10.466944001348793,102.85714285714286,10.466944001348793L0,10.466944001348793C0,10.466944001348793,0,10.466944001348793,0,10.466944001348793L0,5.233472000674396C0,2.345040173233524,2.345040173233524,0,5.233472000674396,0Z"/></clipPath><clipPath id="clip11"><path d="M5.240316758145525,0L97.61682609899734,0C100.50903565092554,0,102.85714285714286,2.348107206217319,102.85714285714286,5.240316758145525L102.85714285714286,10.48063351629105C102.85714285714286,10.48063351629105,102.85714285714286,10.48063351629105,102.85714285714286,10.48063351629105L0,10.48063351629105C0,10.48063351629105,0,10.48063351629105,0,10.48063351629105L0,5.240316758145525C0,2.348107206217319,2.348107206217319,0,5.240316758145525,0Z"/></clipPath><clipPath id="clip12"><path d="M6,0L96.85714285714286,0C100.16863300410687,0,102.85714285714286,2.688509853036,102.85714285714286,6L102.85714285714286,14.544348208014071C102.85714285714286,14.544348208014071,102.85714285714286,14.544348208014071,102.85714285714286,14.544348208014071L0,14.544348208014071C0,14.544348208014071,0,14.544348208014071,0,14.544348208014071L0,6C0,2.688509853036,2.688509853036,0,6,0Z"/></clipPath><clipPath id="clip13"><path d="M6,0L96.85714285714286,0C100.16863300410687,0,102.85714285714286,2.688509853036,102.85714285714286,6L102.85714285714286,546.8044703352017C102.85714285714286,546.8044703352017,102.85714285714286,546.8044703352017,102.85714285714286,546.8044703352017L0,546.8044703352017C0,546.8044703352017,0,546.8044703352017,0,546.8044703352017L0,6C0,2.688509853036,2.688509853036,0,6,0Z"/></clipPath><clipPath id="clip14"><path d="M6,0L96.85714285714286,0C100.16863300410687,0,102.85714285714286,2.688509853036,102.85714285714286,6L102.85714285714286,546.8820189789909C102.85714285714286,546.8820189789909,102.85714285714286,546.8820189789909,102.85714285714286,546.8820189789909L0,546.8820189789909C0,546.8820189789909,0,546.8820189789909,0,546.8820189789909L0,6C0,2.688509853036,2.688509853036,0,6,0Z"/></clipPath><clipPath id="clip15"><path d="M6,0L96.85714285714286,0C100.16863300410687,0,102.85714285714286,2.688509853036,102.85714285714286,6L102.85714285714286,576.9230769230769C102.85714285714286,576.9230769230769,102.85714285714286,576.9230769230769,102.85714285714286,576.9230769230769L0,576.9230769230769C0,576.9230769230769,0,576.9230769230769,0,576.9230769230769L0,6C0,2.688509853036,2.688509853036,0,6,0Z"/></clipPath></defs></svg>
