<svg xmlns="http://www.w3.org/2000/svg" xmlns:xlink="http://www.w3.org/1999/xlink" version="1.1" class="marks" width="844" height="673" viewBox="0 0 844 673"><rect width="844" height="673" fill="white"/><g fill="none" stroke-miterlimit="10" transform="translate(39,36)"><g class="mark-group role-frame root" role="graphics-object" aria-roledescription="group mark container"><g transform="translate(0,0)"><path class="background" aria-hidden="true" d="M0.5,0.5h800v600h-800Z" stroke="#ddd"/><g><g class="mark-group role-axis" role="graphics-symbol" aria-roledescription="axis" aria-label="X-axis titled 'Parser' for a discrete scale with 8 values: ryaml, yaml_rs, yaml_rs (parse_dt=False), PyYAML (CSafeLoader), PyYAML (CLoader), ending with ruamel.yaml"><g transform="translate(0.5,600.5)"><path class="background" aria-hidden="true" d="M0,0h0v0h0Z" pointer-events="none"/><g><g class="mark-rule role-axis-tick" pointer-events="none"><line transform="translate(50,0)" x2="0" y2="5" stroke="#888" stroke-width="1" opacity="1"/><line transform="translate(150,0)" x2="0" y2="5" stroke="#888" stroke-width="1" opacity="1"/><line transform="translate(250,0)" x2="0" y2="5" stroke="#888" stroke-width="1" opacity="1"/><line transform="translate(350,0)" x2="0" y2="5" stroke="#888" stroke-width="1" opacity="1"/><line transform="translate(450,0)" x2="0" y2="5" stroke="#888" stroke-width="1" opacity="1"/><line transform="translate(550,0)" x2="0" y2="5" stroke="#888" stroke-width="1" opacity="1"/><line transform="translate(650,0)" x2="0" y2="5" stroke="#888" stroke-width="1" opacity="1"/><line transform="translate(750,0)" x2="0" y2="5" stroke="#888" stroke-width="1" opacity="1"/></g><g class="mark-text role-axis-label" pointer-events="none"><text text-anchor="middle" transform="translate(49.5,15)" font-family="sans-serif" font-size="10px" fill="#000" opacity="1">ryaml</text><text text-anchor="middle" transform="translate(149.5,15)" font-family="sans-serif" font-size="10px" fill="#000" opacity="1">yaml_rs</text><text text-anchor="middle" transform="translate(249.5,15)" font-family="sans-serif" font-size="10px" fill="#000" opacity="1">yaml_rs (parse_dt=False)</text><text text-anchor="middle" transform="translate(349.5,15)" font-family="sans-serif" font-size="10px" fill="#000" opacity="1">PyYAML (CSafeLoader)</text><text text-anchor="middle" transform="translate(449.5,15)" font-family="sans-serif" font-size="10px" fill="#000" opacity="1">PyYAML (CLoader)</text><text text-anchor="middle" transform="translate(549.5,15)" font-family="sans-serif" font-size="10px" fill="#000" opacity="1">oyaml</text><text text-anchor="middle" transform="translate(649.5,15)" font-family="sans-serif" font-size="10px" fill="#000" opacity="1">PyYAML</text><text text-anchor="middle" transform="translate(749.5,15)" font-family="sans-serif" font-size="10px" fill="#000" opacity="1">ruamel.yaml</text></g><g class="mark-rule role-axis-domain" pointer-events="none"><line transform="translate(0,0)" x2="800" y2="0" stroke="#888" stroke-width="1" opacity="1"/></g><g class="mark-text role-axis-title" pointer-events="none"><text text-anchor="middle" transform="translate(400,30)" font-family="sans-serif" font-size="11px" font-weight="bold" fill="#000" opacity="1">Parser</text></g></g><path class="foreground" aria-hidden="true" d="" pointer-events="none" display="none"/></g></g><g class="mark-group role-axis" role="graphics-symbol" aria-roledescription="axis" aria-label="Y-axis titled 'Execution Time (seconds, lower=better)' for a linear scale with values from 0 to 29"><g transform="translate(0.5,0.5)"><path class="background" aria-hidden="true" d="M0,0h0v0h0Z" pointer-events="none"/><g><g class="mark-rule role-axis-tick" pointer-events="none"><line transform="translate(0,600)" x2="-5" y2="0" stroke="#888" stroke-width="1" opacity="1"/><line transform="translate(0,558)" x2="-5" y2="0" stroke="#888" stroke-width="1" opacity="1"/><line transform="translate(0,517)" x2="-5" y2="0" stroke="#888" stroke-width="1" opacity="1"/><line transform="translate(0,475)" x2="-5" y2="0" stroke="#888" stroke-width="1" opacity="1"/><line transform="translate(0,433)" x2="-5" y2="0" stroke="#888" stroke-width="1" opacity="1"/><line transform="translate(0,391)" x2="-5" y2="0" stroke="#888" stroke-width="1" opacity="1"/><line transform="translate(0,350)" x2="-5" y2="0" stroke="#888" stroke-width="1" opacity="1"/><line transform="translate(0,308)" x2="-5" y2="0" stroke="#888" stroke-width="1" opacity="1"/><line transform="translate(0,266)" x2="-5" y2="0" stroke="#888" stroke-width="1" opacity="1"/><line transform="translate(0,225)" x2="-5" y2="0" stroke="#888" stroke-width="1" opacity="1"/><line transform="translate(0,183)" x2="-5" y2="0" stroke="#888" stroke-width="1" opacity="1"/><line transform="translate(0,141)" x2="-5" y2="0" stroke="#888" stroke-width="1" opacity="1"/><line transform="translate(0,99)" x2="-5" y2="0" stroke="#888" stroke-width="1" opacity="1"/><line transform="translate(0,58)" x2="-5" y2="0" stroke="#888" stroke-width="1" opacity="1"/><line transform="translate(0,16)" x2="-5" y2="0" stroke="#888" stroke-width="1" opacity="1"/></g><g class="mark-text role-axis-label" pointer-events="none"><text text-anchor="end" transform="translate(-7,603)" font-family="sans-serif" font-size="10px" fill="#000" opacity="1">0</text><text text-anchor="end" transform="translate(-7,561.28760013404)" font-family="sans-serif" font-size="10px" fill="#000" opacity="1">2</text><text text-anchor="end" transform="translate(-7,519.5752002680798)" font-family="sans-serif" font-size="10px" fill="#000" opacity="1">4</text><text text-anchor="end" transform="translate(-7,477.86280040211966)" font-family="sans-serif" font-size="10px" fill="#000" opacity="1">6</text><text text-anchor="end" transform="translate(-7,436.15040053615957)" font-family="sans-serif" font-size="10px" fill="#000" opacity="1">8</text><text text-anchor="end" transform="translate(-7,394.4380006701994)" font-family="sans-serif" font-size="10px" fill="#000" opacity="1">10</text><text text-anchor="end" transform="translate(-7,352.7256008042393)" font-family="sans-serif" font-size="10px" fill="#000" opacity="1">12</text><text text-anchor="end" transform="translate(-7,311.0132009382792)" font-family="sans-serif" font-size="10px" fill="#000" opacity="1">14</text><text text-anchor="end" transform="translate(-7,269.30080107231913)" font-family="sans-serif" font-size="10px" fill="#000" opacity="1">16</text><text text-anchor="end" transform="translate(-7,227.58840120635898)" font-family="sans-serif" font-size="10px" fill="#000" opacity="1">18</text><text text-anchor="end" transform="translate(-7,185.8760013403989)" font-family="sans-serif" font-size="10px" fill="#000" opacity="1">20</text><text text-anchor="end" transform="translate(-7,144.1636014744388)" font-family="sans-serif" font-size="10px" fill="#000" opacity="1">22</text><text text-anchor="end" transform="translate(-7,102.45120160847868)" font-family="sans-serif" font-size="10px" fill="#000" opacity="1">24</text><text text-anchor="end" transform="translate(-7,60.73880174251853)" font-family="sans-serif" font-size="10px" fill="#000" opacity="1">26</text><text text-anchor="end" transform="translate(-7,19.026401876558438)" font-family="sans-serif" font-size="10px" fill="#000" opacity="1">28</text></g><g class="mark-rule role-axis-domain" pointer-events="none"><line transform="translate(0,600)" x2="0" y2="-600" stroke="#888" stroke-width="1" opacity="1"/></g><g class="mark-text role-axis-title" pointer-events="none"><text text-anchor="middle" transform="translate(-22.123046875,300) rotate(-90) translate(0,-2)" font-family="sans-serif" font-size="11px" font-weight="bold" fill="#000" opacity="1">Execution Time (seconds, lower=better)</text></g></g><path class="foreground" aria-hidden="true" d="" pointer-events="none" display="none"/></g></g><g class="mark-group role-scope" role="graphics-object" aria-roledescription="group mark container"><g transform="translate(5,592.6296181482147)"><path class="background" aria-hidden="true" d="M3.685190925892641,0L86.31480907410736,0C88.34872131423646,0,90,1.6512786857635378,90,3.685190925892641L90,7.370381851785282C90,7.370381851785282,90,7.370381851785282,90,7.370381851785282L0,7.370381851785282C0,7.370381851785282,0,7.370381851785282,0,7.370381851785282L0,3.685190925892641C0,1.6512786857635378,1.6512786857635378,0,3.685190925892641,0Z"/><g clip-path="url(#clip1)"><g class="mark-group role-scope" role="graphics-object" aria-roledescription="group mark container"><g transform="translate(0,-592.6296181482147)"><path class="background" aria-hidden="true" d="M0,0h90v0h-90Z"/><g><g class="mark-rect role-mark layer_0_marks" role="graphics-object" aria-roledescription="rect mark container"><path aria-label="Parser: ryaml; Execution Time (seconds, lower=better): 0.353390448666; parser: ryaml; Execution Time (s): 0.3534; Slowdown: 1.00" role="graphics-symbol" aria-roledescription="bar" d="M0,592.6296181482147h90v7.370381851785282h-90Z" fill="#e6ab02"/></g></g><path class="foreground" aria-hidden="true" d="" display="none"/></g></g></g><path class="foreground" aria-hidden="true" d="" display="none"/></g><g transform="translate(105,592.015812536883)"><path class="background" aria-hidden="true" d="M3.992093731558498,0L86.0079062684415,0C88.21120277807695,0,90,1.7887972219230457,90,3.992093731558498L90,7.984187463116996C90,7.984187463116996,90,7.984187463116996,90,7.984187463116996L0,7.984187463116996C0,7.984187463116996,0,7.984187463116996,0,7.984187463116996L0,3.992093731558498C0,1.7887972219230457,1.7887972219230457,0,3.992093731558498,0Z"/><g clip-path="url(#clip2)"><g class="mark-group role-scope" role="graphics-object" aria-roledescription="group mark container"><g transform="translate(0,-592.015812536883)"><path class="background" aria-hidden="true" d="M0,0h90v0h-90Z"/><g><g class="mark-rect role-mark layer_0_marks" role="graphics-object" aria-roledescription="rect mark container"><path aria-label="Parser: yaml_rs; Execution Time (seconds, lower=better): 0.382820815334; parser: yaml_rs; Execution Time (s): 0.3828; Slowdown: 1.08" role="graphics-symbol" aria-roledescription="bar" d="M0,592.015812536883h90v7.984187463116996h-90Z" fill="#a6761d"/></g></g><path class="foreground" aria-hidden="true" d="" display="none"/></g></g></g><path class="foreground" aria-hidden="true" d="" display="none"/></g><g transform="translate(205,591.8451177493831)"><path class="background" aria-hidden="true" d="M4.0774411253084395,0L85.92255887469156,0C88.17295989323901,0,90,1.8270401067609892,90,4.0774411253084395L90,8.154882250616879C90,8.154882250616879,90,8.154882250616879,90,8.154882250616879L0,8.154882250616879C0,8.154882250616879,0,8.154882250616879,0,8.154882250616879L0,4.0774411253084395C0,1.8270401067609892,1.8270401067609892,0,4.0774411253084395,0Z"/><g clip-path="url(#clip3)"><g class="mark-group role-scope" role="graphics-object" aria-roledescription="group mark container"><g transform="translate(0,-591.8451177493831)"><path class="background" aria-hidden="true" d="M0,0h90v0h-90Z"/><g><g class="mark-rect role-mark layer_0_marks" role="graphics-object" aria-roledescription="rect mark container"><path aria-label="Parser: yaml_rs (parse_dt=False); Execution Time (seconds, lower=better): 0.391005182; parser: yaml_rs (parse_dt=False); Execution Time (s): 0.3910; Slowdown: 1.11" role="graphics-symbol" aria-roledescription="bar" d="M0,591.8451177493831h90v8.154882250616879h-90Z" fill="#666666"/></g></g><path class="foreground" aria-hidden="true" d="" display="none"/></g></g></g><path class="foreground" aria-hidden="true" d="" display="none"/></g><g transform="translate(305,564.9242751447891)"><path class="background" aria-hidden="true" d="M6,0L84,0C87.311490146964,0,90,2.688509853036,90,6L90,35.075724855210865C90,35.075724855210865,90,35.075724855210865,90,35.075724855210865L0,35.075724855210865C0,35.075724855210865,0,35.075724855210865,0,35.075724855210865L0,6C0,2.688509853036,2.688509853036,0,6,0Z"/><g clip-path="url(#clip4)"><g class="mark-group role-scope" role="graphics-object" aria-roledescription="group mark container"><g transform="translate(0,-564.9242751447891)"><path class="background" aria-hidden="true" d="M0,0h90v0h-90Z"/><g><g class="mark-rect role-mark layer_0_marks" role="graphics-object" aria-roledescription="rect mark container"><path aria-label="Parser: PyYAML (CSafeLoader); Execution Time (seconds, lower=better): 1.681788867; parser: PyYAML (CSafeLoader); Execution Time (s): 1.6818; Slowdown: 4.76" role="graphics-symbol" aria-roledescription="bar" d="M0,564.9242751447891h90v35.075724855210865h-90Z" fill="#7570b3"/></g></g><path class="foreground" aria-hidden="true" d="" display="none"/></g></g></g><path class="foreground" aria-hidden="true" d="" display="none"/></g><g transform="translate(405,564.7033394470965)"><path class="background" aria-hidden="true" d="M6,0L84,0C87.311490146964,0,90,2.688509853036,90,6L90,35.29666055290352C90,35.29666055290352,90,35.29666055290352,90,35.29666055290352L0,35.29666055290352C0,35.29666055290352,0,35.29666055290352,0,35.29666055290352L0,6C0,2.688509853036,2.688509853036,0,6,0Z"/><g clip-path="url(#clip5)"><g class="mark-group role-scope" role="graphics-object" aria-roledescription="group mark container"><g transform="translate(0,-564.7033394470965)"><path class="background" aria-hidden="true" d="M0,0h90v0h-90Z"/><g><g class="mark-rect role-mark layer_0_marks" role="graphics-object" aria-roledescription="rect mark container"><path aria-label="Parser: PyYAML (CLoader); Execution Time (seconds, lower=better): 1.69238215333; parser: PyYAML (CLoader); Execution Time (s): 1.6924; Slowdown: 4.79" role="graphics-symbol" aria-roledescription="bar" d="M0,564.7033394470965h90v35.29666055290352h-90Z" fill="#d95f02"/></g></g><path class="foreground" aria-hidden="true" d="" display="none"/></g></g></g><path class="foreground" aria-hidden="true" d="" display="none"/></g><g transform="translate(505,206.4899935096565)"><path class="background" aria-hidden="true" d="M6,0L84,0C87.311490146964,0,90,2.688509853036,90,6L90,393.51000649034347C90,393.51000649034347,90,393.51000649034347,90,393.51000649034347L0,393.51000649034347C0,393.51000649034347,0,393.51000649034347,0,393.51000649034347L0,6C0,2.688509853036,2.688509853036,0,6,0Z"/><g clip-path="url(#clip6)"><g class="mark-group role-scope" role="graphics-object" aria-roledescription="group mark container"><g transform="translate(0,-206.4899935096565)"><path class="background" aria-hidden="true" d="M0,0h90v0h-90Z"/><g><g class="mark-rect role-mark layer_0_marks" role="graphics-object" aria-roledescription="rect mark container"><path aria-label="Parser: oyaml; Execution Time (seconds, lower=better): 18.8677711067; parser: oyaml; Execution Time (s): 18.8678; Slowdown: 53.39" role="graphics-symbol" aria-roledescription="bar" d="M0,206.4899935096565h90v393.51000649034347h-90Z" fill="#e7298a"/></g></g><path class="foreground" aria-hidden="true" d="" display="none"/></g></g></g><path class="foreground" aria-hidden="true" d="" display="none"/></g><g transform="translate(605,206.4225286040795)"><path class="background" aria-hidden="true" d="M6,0L84,0C87.311490146964,0,90,2.688509853036,90,6L90,393.5774713959205C90,393.5774713959205,90,393.5774713959205,90,393.5774713959205L0,393.5774713959205C0,393.5774713959205,0,393.5774713959205,0,393.5774713959205L0,6C0,2.688509853036,2.688509853036,0,6,0Z"/><g clip-path="url(#clip7)"><g class="mark-group role-scope" role="graphics-object" aria-roledescription="group mark container"><g transform="translate(0,-206.4225286040795)"><path class="background" aria-hidden="true" d="M0,0h90v0h-90Z"/><g><g class="mark-rect role-mark layer_0_marks" role="graphics-object" aria-roledescription="rect mark container"><path aria-label="Parser: PyYAML; Execution Time (seconds, lower=better): 18.8710058717; parser: PyYAML; Execution Time (s): 18.8710; Slowdown: 53.40" role="graphics-symbol" aria-roledescription="bar" d="M0,206.4225286040795h90v393.5774713959205h-90Z" fill="#1b9e77"/></g></g><path class="foreground" aria-hidden="true" d="" display="none"/></g></g></g><path class="foreground" aria-hidden="true" d="" display="none"/></g><g transform="translate(705,23.07692307692313)"><path class="background" aria-hidden="true" d="M6,0L84,0C87.311490146964,0,90,2.688509853036,90,6L90,576.9230769230769C90,576.9230769230769,90,576.9230769230769,90,576.9230769230769L0,576.9230769230769C0,576.9230769230769,0,576.9230769230769,0,576.9230769230769L0,6C0,2.688509853036,2.688509853036,0,6,0Z"/><g clip-path="url(#clip8)"><g class="mark-group role-scope" role="graphics-object" aria-roledescription="group mark container"><g transform="translate(0,-23.07692307692313)"><path class="background" aria-hidden="true" d="M0,0h90v0h-90Z"/><g><g class="mark-rect role-mark layer_0_marks" role="graphics-object" aria-roledescription="rect mark container"><path aria-label="Parser: ruamel.yaml; Execution Time (seconds, lower=better): 27.6619460293; parser: ruamel.yaml; Execution Time (s): 27.6619; Slowdown: 78.28" role="graphics-symbol" aria-roledescription="bar" d="M0,23.07692307692313h90v576.9230769230769h-90Z" fill="#66a61e"/></g></g><path class="foreground" aria-hidden="true" d="" display="none"/></g></g></g><path class="foreground" aria-hidden="true" d="" display="none"/></g></g><g class="mark-text role-mark layer_1_marks" role="graphics-object" aria-roledescription="text mark container"><text aria-label="Parser: ryaml; Execution Time (seconds, lower=better): 0.353390448666; parser: ryaml; label: 0.3534s (x1.00); Execution Time (s): 0.3534; Slowdown: 1.00" role="graphics-symbol" aria-roledescription="text mark" text-anchor="middle" transform="translate(50,588.6296181482147)" font-family="sans-serif" font-size="9px" font-weight="bold" fill="#e6ab02">0.3534s (x1.00)</text><text aria-label="Parser: yaml_rs; Execution Time (seconds, lower=better): 0.382820815334; parser: yaml_rs; label: 0.3828s (x1.08); Execution Time (s): 0.3828; Slowdown: 1.08" role="graphics-symbol" aria-roledescription="text mark" text-anchor="middle" transform="translate(150,588.015812536883)" font-family="sans-serif" font-size="9px" font-weight="bold" fill="#a6761d">0.3828s (x1.08)</text><text aria-label="Parser: yaml_rs (parse_dt=False); Execution Time (seconds, lower=better): 0.391005182; parser: yaml_rs (parse_dt=False); label: 0.3910s (x1.11); Execution Time (s): 0.3910; Slowdown: 1.11" role="graphics-symbol" aria-roledescription="text mark" text-anchor="middle" transform="translate(250,587.8451177493831)" font-family="sans-serif" font-size="9px" font-weight="bold" fill="#666666">0.3910s (x1.11)</text><text aria-label="Parser: PyYAML (CSafeLoader); Execution Time (seconds, lower=better): 1.681788867; parser: PyYAML (CSafeLoader); label: 1.6818s (x4.76); Execution Time (s): 1.6818; Slowdown: 4.76" role="graphics-symbol" aria-roledescription="text mark" text-anchor="middle" transform="translate(350,560.9242751447891)" font-family="sans-serif" font-size="9px" font-weight="bold" fill="#7570b3">1.6818s (x4.76)</text><text aria-label="Parser: PyYAML (CLoader); Execution Time (seconds, lower=better): 1.69238215333; parser: PyYAML (CLoader); label: 1.6924s (x4.79); Execution Time (s): 1.6924; Slowdown: 4.79" role="graphics-symbol" aria-roledescription="text mark" text-anchor="middle" transform="translate(450,560.7033394470965)" font-family="sans-serif" font-size="9px" font-weight="bold" fill="#d95f02">1.6924s (x4.79)</text><text aria-label="Parser: oyaml; Execution Time (seconds, lower=better): 18.8677711067; parser: oyaml; label: 18.8678s (x53.39); Execution Time (s): 18.8678; Slowdown: 53.39" role="graphics-symbol" aria-roledescription="text mark" text-anchor="middle" transform="translate(550,202.4899935096565)" font-family="sans-serif" font-size="9px" font-weight="bold" fill="#e7298a">18.8678s (x53.39)</text><text aria-label="Parser: PyYAML; Execution Time (seconds, lower=better): 18.8710058717; parser: PyYAML; label: 18.8710s (x53.40); Execution Time (s): 18.8710; Slowdown: 53.40" role="graphics-symbol" aria-roledescription="text mark" text-anchor="middle" transform="translate(650,202.4225286040795)" font-family="sans-serif" font-size="9px" font-weight="bold" fill="#1b9e77">18.8710s (x53.40)</text><text aria-label="Parser: ruamel.yaml; Execution Time (seconds, lower=better): 27.6619460293; parser: ruamel.yaml; label: 27.6619s (x78.28); Execution Time (s): 27.6619; Slowdown: 78.28" role="graphics-symbol" aria-roledescription="text mark" text-anchor="middle" transform="translate(750,19.07692307692313)" font-family="sans-serif" font-size="9px" font-weight="bold" fill="#66a61e">27.6619s (x78.28)</text></g><g class="mark-group role-title"><g transform="translate(400,-31)"><path class="background" aria-hidden="true" d="M0,0h0v0h0Z" pointer-events="none"/><g><g class="mark-text role-title-text" role="graphics-symbol" aria-roledescription="title" aria-label="Title text 'YAML parsers benchmark (loads)'" pointer-events="none"><text text-anchor="middle" transform="translate(0,10)" font-family="sans-serif" font-size="13px" font-weight="bold" fill="#000" opacity="1">YAML parsers benchmark (loads)</text></g><g class="mark-text role-title-subtitle" role="graphics-symbol" aria-roledescription="subtitle" aria-label="Subtitle text 'Python: 3.13.11+ (Linux 6.17.7-ba25.fc43.x86_64) | CPU: AMD Ryzen 9 9950X 16-Core Processor'" pointer-events="none"><text text-anchor="middle" transform="translate(0,25)" font-family="sans-serif" font-size="12px" fill="#000" opacity="1">Python: 3.13.11+ (Linux 6.17.7-ba25.fc43.x86_64) | CPU: AMD Ryzen 9 9950X 16-Core Processor</text></g></g><path class="foreground" aria-hidden="true" d="" pointer-events="none" display="none"/></g></g></g><path class="foreground" aria-hidden="true" d="" display="none"/></g></g></g><defs><clipPath id="clip1"><path d="M3.685190925892641,0L86.31480907410736,0C88.34872131423646,0,90,1.6512786857635378,90,3.685190925892641L90,7.370381851785282C90,7.370381851785282,90,7.370381851785282,90,7.370381851785282L0,7.370381851785282C0,7.370381851785282,0,7.370381851785282,0,7.370381851785282L0,3.685190925892641C0,1.6512786857635378,1.6512786857635378,0,3.685190925892641,0Z"/></clipPath><clipPath id="clip2"><path d="M3.992093731558498,0L86.0079062684415,0C88.21120277807695,0,90,1.7887972219230457,90,3.992093731558498L90,7.984187463116996C90,7.984187463116996,90,7.984187463116996,90,7.984187463116996L0,7.984187463116996C0,7.984187463116996,0,7.984187463116996,0,7.984187463116996L0,3.992093731558498C0,1.7887972219230457,1.7887972219230457,0,3.992093731558498,0Z"/></clipPath><clipPath id="clip3"><path d="M4.0774411253084395,0L85.92255887469156,0C88.17295989323901,0,90,1.8270401067609892,90,4.0774411253084395L90,8.154882250616879C90,8.154882250616879,90,8.154882250616879,90,8.154882250616879L0,8.154882250616879C0,8.154882250616879,0,8.154882250616879,0,8.154882250616879L0,4.0774411253084395C0,1.8270401067609892,1.8270401067609892,0,4.0774411253084395,0Z"/></clipPath><clipPath id="clip4"><path d="M6,0L84,0C87.311490146964,0,90,2.688509853036,90,6L90,35.075724855210865C90,35.075724855210865,90,35.075724855210865,90,35.075724855210865L0,35.075724855210865C0,35.075724855210865,0,35.075724855210865,0,35.075724855210865L0,6C0,2.688509853036,2.688509853036,0,6,0Z"/></clipPath><clipPath id="clip5"><path d="M6,0L84,0C87.311490146964,0,90,2.688509853036,90,6L90,35.29666055290352C90,35.29666055290352,90,35.29666055290352,90,35.29666055290352L0,35.29666055290352C0,35.29666055290352,0,35.29666055290352,0,35.29666055290352L0,6C0,2.688509853036,2.688509853036,0,6,0Z"/></clipPath><clipPath id="clip6"><path d="M6,0L84,0C87.311490146964,0,90,2.688509853036,90,6L90,393.51000649034347C90,393.51000649034347,90,393.51000649034347,90,393.51000649034347L0,393.51000649034347C0,393.51000649034347,0,393.51000649034347,0,393.51000649034347L0,6C0,2.688509853036,2.688509853036,0,6,0Z"/></clipPath><clipPath id="clip7"><path d="M6,0L84,0C87.311490146964,0,90,2.688509853036,90,6L90,393.5774713959205C90,393.5774713959205,90,393.5774713959205,90,393.5774713959205L0,393.5774713959205C0,393.5774713959205,0,393.5774713959205,0,393.5774713959205L0,6C0,2.688509853036,2.688509853036,0,6,0Z"/></clipPath><clipPath id="clip8"><path d="M6,0L84,0C87.311490146964,0,90,2.688509853036,90,6L90,576.9230769230769C90,576.9230769230769,90,576.9230769230769,90,576.9230769230769L0,576.9230769230769C0,576.9230769230769,0,576.9230769230769,0,576.9230769230769L0,6C0,2.688509853036,2.688509853036,0,6,0Z"/></clipPath></defs></svg>
