<svg xmlns="http://www.w3.org/2000/svg" xmlns:xlink="http://www.w3.org/1999/xlink" version="1.1" class="marks" width="844" height="673" viewBox="0 0 844 673"><rect width="844" height="673" fill="white"/><g fill="none" stroke-miterlimit="10" transform="translate(39,36)"><g class="mark-group role-frame root" role="graphics-object" aria-roledescription="group mark container"><g transform="translate(0,0)"><path class="background" aria-hidden="true" d="M0.5,0.5h800v600h-800Z" stroke="#ddd"/><g><g class="mark-group role-axis" role="graphics-symbol" aria-roledescription="axis" aria-label="X-axis titled 'Parser' for a discrete scale with 8 values: yaml_rs, yaml_rs (parse_dt=False), ryaml, PyYAML (CSafeLoader), PyYAML (CLoader), ending with ruamel.yaml"><g transform="translate(0.5,600.5)"><path class="background" aria-hidden="true" d="M0,0h0v0h0Z" pointer-events="none"/><g><g class="mark-rule role-axis-tick" pointer-events="none"><line transform="translate(50,0)" x2="0" y2="5" stroke="#888" stroke-width="1" opacity="1"/><line transform="translate(150,0)" x2="0" y2="5" stroke="#888" stroke-width="1" opacity="1"/><line transform="translate(250,0)" x2="0" y2="5" stroke="#888" stroke-width="1" opacity="1"/><line transform="translate(350,0)" x2="0" y2="5" stroke="#888" stroke-width="1" opacity="1"/><line transform="translate(450,0)" x2="0" y2="5" stroke="#888" stroke-width="1" opacity="1"/><line transform="translate(550,0)" x2="0" y2="5" stroke="#888" stroke-width="1" opacity="1"/><line transform="translate(650,0)" x2="0" y2="5" stroke="#888" stroke-width="1" opacity="1"/><line transform="translate(750,0)" x2="0" y2="5" stroke="#888" stroke-width="1" opacity="1"/></g><g class="mark-text role-axis-label" pointer-events="none"><text text-anchor="middle" transform="translate(49.5,15)" font-family="sans-serif" font-size="10px" fill="#000" opacity="1">yaml_rs</text><text text-anchor="middle" transform="translate(149.5,15)" font-family="sans-serif" font-size="10px" fill="#000" opacity="1">yaml_rs (parse_dt=False)</text><text text-anchor="middle" transform="translate(249.5,15)" font-family="sans-serif" font-size="10px" fill="#000" opacity="1">ryaml</text><text text-anchor="middle" transform="translate(349.5,15)" font-family="sans-serif" font-size="10px" fill="#000" opacity="1">PyYAML (CSafeLoader)</text><text text-anchor="middle" transform="translate(449.5,15)" font-family="sans-serif" font-size="10px" fill="#000" opacity="1">PyYAML (CLoader)</text><text text-anchor="middle" transform="translate(549.5,15)" font-family="sans-serif" font-size="10px" fill="#000" opacity="1">PyYAML</text><text text-anchor="middle" transform="translate(649.5,15)" font-family="sans-serif" font-size="10px" fill="#000" opacity="1">oyaml</text><text text-anchor="middle" transform="translate(749.5,15)" font-family="sans-serif" font-size="10px" fill="#000" opacity="1">ruamel.yaml</text></g><g class="mark-rule role-axis-domain" pointer-events="none"><line transform="translate(0,0)" x2="800" y2="0" stroke="#888" stroke-width="1" opacity="1"/></g><g class="mark-text role-axis-title" pointer-events="none"><text text-anchor="middle" transform="translate(400,30)" font-family="sans-serif" font-size="11px" font-weight="bold" fill="#000" opacity="1">Parser</text></g></g><path class="foreground" aria-hidden="true" d="" pointer-events="none" display="none"/></g></g><g class="mark-group role-axis" role="graphics-symbol" aria-roledescription="axis" aria-label="Y-axis titled 'Execution Time (seconds, lower=better)' for a linear scale with values from 0 to 27"><g transform="translate(0.5,0.5)"><path class="background" aria-hidden="true" d="M0,0h0v0h0Z" pointer-events="none"/><g><g class="mark-rule role-axis-tick" pointer-events="none"><line transform="translate(0,600)" x2="-5" y2="0" stroke="#888" stroke-width="1" opacity="1"/><line transform="translate(0,555)" x2="-5" y2="0" stroke="#888" stroke-width="1" opacity="1"/><line transform="translate(0,510)" x2="-5" y2="0" stroke="#888" stroke-width="1" opacity="1"/><line transform="translate(0,465)" x2="-5" y2="0" stroke="#888" stroke-width="1" opacity="1"/><line transform="translate(0,419)" x2="-5" y2="0" stroke="#888" stroke-width="1" opacity="1"/><line transform="translate(0,374)" x2="-5" y2="0" stroke="#888" stroke-width="1" opacity="1"/><line transform="translate(0,329)" x2="-5" y2="0" stroke="#888" stroke-width="1" opacity="1"/><line transform="translate(0,284)" x2="-5" y2="0" stroke="#888" stroke-width="1" opacity="1"/><line transform="translate(0,239)" x2="-5" y2="0" stroke="#888" stroke-width="1" opacity="1"/><line transform="translate(0,194)" x2="-5" y2="0" stroke="#888" stroke-width="1" opacity="1"/><line transform="translate(0,148)" x2="-5" y2="0" stroke="#888" stroke-width="1" opacity="1"/><line transform="translate(0,103)" x2="-5" y2="0" stroke="#888" stroke-width="1" opacity="1"/><line transform="translate(0,58)" x2="-5" y2="0" stroke="#888" stroke-width="1" opacity="1"/><line transform="translate(0,13)" x2="-5" y2="0" stroke="#888" stroke-width="1" opacity="1"/></g><g class="mark-text role-axis-label" pointer-events="none"><text text-anchor="end" transform="translate(-7,603)" font-family="sans-serif" font-size="10px" fill="#000" opacity="1">0</text><text text-anchor="end" transform="translate(-7,557.8477014451194)" font-family="sans-serif" font-size="10px" fill="#000" opacity="1">2</text><text text-anchor="end" transform="translate(-7,512.6954028902387)" font-family="sans-serif" font-size="10px" fill="#000" opacity="1">4</text><text text-anchor="end" transform="translate(-7,467.5431043353581)" font-family="sans-serif" font-size="10px" fill="#000" opacity="1">6</text><text text-anchor="end" transform="translate(-7,422.3908057804774)" font-family="sans-serif" font-size="10px" fill="#000" opacity="1">8</text><text text-anchor="end" transform="translate(-7,377.2385072255968)" font-family="sans-serif" font-size="10px" fill="#000" opacity="1">10</text><text text-anchor="end" transform="translate(-7,332.08620867071613)" font-family="sans-serif" font-size="10px" fill="#000" opacity="1">12</text><text text-anchor="end" transform="translate(-7,286.9339101158355)" font-family="sans-serif" font-size="10px" fill="#000" opacity="1">14</text><text text-anchor="end" transform="translate(-7,241.7816115609549)" font-family="sans-serif" font-size="10px" fill="#000" opacity="1">16</text><text text-anchor="end" transform="translate(-7,196.62931300607426)" font-family="sans-serif" font-size="10px" fill="#000" opacity="1">18</text><text text-anchor="end" transform="translate(-7,151.47701445119358)" font-family="sans-serif" font-size="10px" fill="#000" opacity="1">20</text><text text-anchor="end" transform="translate(-7,106.32471589631294)" font-family="sans-serif" font-size="10px" fill="#000" opacity="1">22</text><text text-anchor="end" transform="translate(-7,61.17241734143228)" font-family="sans-serif" font-size="10px" fill="#000" opacity="1">24</text><text text-anchor="end" transform="translate(-7,16.02011878655169)" font-family="sans-serif" font-size="10px" fill="#000" opacity="1">26</text></g><g class="mark-rule role-axis-domain" pointer-events="none"><line transform="translate(0,600)" x2="0" y2="-600" stroke="#888" stroke-width="1" opacity="1"/></g><g class="mark-text role-axis-title" pointer-events="none"><text text-anchor="middle" transform="translate(-22.123046875,300) rotate(-90) translate(0,-2)" font-family="sans-serif" font-size="11px" font-weight="bold" fill="#000" opacity="1">Execution Time (seconds, lower=better)</text></g></g><path class="foreground" aria-hidden="true" d="" pointer-events="none" display="none"/></g></g><g class="mark-group role-scope" role="graphics-object" aria-roledescription="group mark container"><g transform="translate(5,590.391100611385)"><path class="background" aria-hidden="true" d="M4.804449694307493,0L85.1955503056925,0C87.84719827640642,0,90,2.1528017235935826,90,4.804449694307493L90,9.608899388614986C90,9.608899388614986,90,9.608899388614986,90,9.608899388614986L0,9.608899388614986C0,9.608899388614986,0,9.608899388614986,0,9.608899388614986L0,4.804449694307493C0,2.1528017235935826,2.1528017235935826,0,4.804449694307493,0Z"/><g clip-path="url(#clip1)"><g class="mark-group role-scope" role="graphics-object" aria-roledescription="group mark container"><g transform="translate(0,-590.391100611385)"><path class="background" aria-hidden="true" d="M0,0h90v0h-90Z"/><g><g class="mark-rect role-mark layer_0_marks" role="graphics-object" aria-roledescription="rect mark container"><path aria-label="Parser: yaml_rs; Execution Time (seconds, lower=better): 0.425621715667; parser: yaml_rs; Execution Time (s): 0.4256; Slowdown: 1.00" role="graphics-symbol" aria-roledescription="bar" d="M0,590.391100611385h90v9.608899388614986h-90Z" fill="#a6761d"/></g></g><path class="foreground" aria-hidden="true" d="" display="none"/></g></g></g><path class="foreground" aria-hidden="true" d="" display="none"/></g><g transform="translate(105,589.6710667043841)"><path class="background" aria-hidden="true" d="M5.164466647807956,0L84.83553335219204,0C87.68588008861542,0,90,2.314119911384582,90,5.164466647807956L90,10.328933295615911C90,10.328933295615911,90,10.328933295615911,90,10.328933295615911L0,10.328933295615911C0,10.328933295615911,0,10.328933295615911,0,10.328933295615911L0,5.164466647807956C0,2.314119911384582,2.314119911384582,0,5.164466647807956,0Z"/><g clip-path="url(#clip2)"><g class="mark-group role-scope" role="graphics-object" aria-roledescription="group mark container"><g transform="translate(0,-589.6710667043841)"><path class="background" aria-hidden="true" d="M0,0h90v0h-90Z"/><g><g class="mark-rect role-mark layer_0_marks" role="graphics-object" aria-roledescription="rect mark container"><path aria-label="Parser: yaml_rs (parse_dt=False); Execution Time (seconds, lower=better): 0.457515281667; parser: yaml_rs (parse_dt=False); Execution Time (s): 0.4575; Slowdown: 1.07" role="graphics-symbol" aria-roledescription="bar" d="M0,589.6710667043841h90v10.328933295615911h-90Z" fill="#666666"/></g></g><path class="foreground" aria-hidden="true" d="" display="none"/></g></g></g><path class="foreground" aria-hidden="true" d="" display="none"/></g><g transform="translate(205,587.3198839627055)"><path class="background" aria-hidden="true" d="M6,0L84,0C87.311490146964,0,90,2.688509853036,90,6L90,12.68011603729451C90,12.68011603729451,90,12.68011603729451,90,12.68011603729451L0,12.68011603729451C0,12.68011603729451,0,12.68011603729451,0,12.68011603729451L0,6C0,2.688509853036,2.688509853036,0,6,0Z"/><g clip-path="url(#clip3)"><g class="mark-group role-scope" role="graphics-object" aria-roledescription="group mark container"><g transform="translate(0,-587.3198839627055)"><path class="background" aria-hidden="true" d="M0,0h90v0h-90Z"/><g><g class="mark-rect role-mark layer_0_marks" role="graphics-object" aria-roledescription="rect mark container"><path aria-label="Parser: ryaml; Execution Time (seconds, lower=better): 0.561659824334; parser: ryaml; Execution Time (s): 0.5617; Slowdown: 1.32" role="graphics-symbol" aria-roledescription="bar" d="M0,587.3198839627055h90v12.68011603729451h-90Z" fill="#e6ab02"/></g></g><path class="foreground" aria-hidden="true" d="" display="none"/></g></g></g><path class="foreground" aria-hidden="true" d="" display="none"/></g><g transform="translate(305,561.0856059289779)"><path class="background" aria-hidden="true" d="M6,0L84,0C87.311490146964,0,90,2.688509853036,90,6L90,38.914394071022116C90,38.914394071022116,90,38.914394071022116,90,38.914394071022116L0,38.914394071022116C0,38.914394071022116,0,38.914394071022116,0,38.914394071022116L0,6C0,2.688509853036,2.688509853036,0,6,0Z"/><g clip-path="url(#clip4)"><g class="mark-group role-scope" role="graphics-object" aria-roledescription="group mark container"><g transform="translate(0,-561.0856059289779)"><path class="background" aria-hidden="true" d="M0,0h90v0h-90Z"/><g><g class="mark-rect role-mark layer_0_marks" role="graphics-object" aria-roledescription="rect mark container"><path aria-label="Parser: PyYAML (CSafeLoader); Execution Time (seconds, lower=better): 1.723694931; parser: PyYAML (CSafeLoader); Execution Time (s): 1.7237; Slowdown: 4.05" role="graphics-symbol" aria-roledescription="bar" d="M0,561.0856059289779h90v38.914394071022116h-90Z" fill="#7570b3"/></g></g><path class="foreground" aria-hidden="true" d="" display="none"/></g></g></g><path class="foreground" aria-hidden="true" d="" display="none"/></g><g transform="translate(405,560.8269185447723)"><path class="background" aria-hidden="true" d="M6,0L84,0C87.311490146964,0,90,2.688509853036,90,6L90,39.1730814552277C90,39.1730814552277,90,39.1730814552277,90,39.1730814552277L0,39.1730814552277C0,39.1730814552277,0,39.1730814552277,0,39.1730814552277L0,6C0,2.688509853036,2.688509853036,0,6,0Z"/><g clip-path="url(#clip5)"><g class="mark-group role-scope" role="graphics-object" aria-roledescription="group mark container"><g transform="translate(0,-560.8269185447723)"><path class="background" aria-hidden="true" d="M0,0h90v0h-90Z"/><g><g class="mark-rect role-mark layer_0_marks" role="graphics-object" aria-roledescription="rect mark container"><path aria-label="Parser: PyYAML (CLoader); Execution Time (seconds, lower=better): 1.735153368; parser: PyYAML (CLoader); Execution Time (s): 1.7352; Slowdown: 4.08" role="graphics-symbol" aria-roledescription="bar" d="M0,560.8269185447723h90v39.1730814552277h-90Z" fill="#d95f02"/></g></g><path class="foreground" aria-hidden="true" d="" display="none"/></g></g></g><path class="foreground" aria-hidden="true" d="" display="none"/></g><g transform="translate(505,173.64867479143018)"><path class="background" aria-hidden="true" d="M6,0L84,0C87.311490146964,0,90,2.688509853036,90,6L90,426.35132520856985C90,426.35132520856985,90,426.35132520856985,90,426.35132520856985L0,426.35132520856985C0,426.35132520856985,0,426.35132520856985,0,426.35132520856985L0,6C0,2.688509853036,2.688509853036,0,6,0Z"/><g clip-path="url(#clip6)"><g class="mark-group role-scope" role="graphics-object" aria-roledescription="group mark container"><g transform="translate(0,-173.64867479143018)"><path class="background" aria-hidden="true" d="M0,0h90v0h-90Z"/><g><g class="mark-rect role-mark layer_0_marks" role="graphics-object" aria-roledescription="rect mark container"><path aria-label="Parser: PyYAML; Execution Time (seconds, lower=better): 18.8850330483; parser: PyYAML; Execution Time (s): 18.8850; Slowdown: 44.37" role="graphics-symbol" aria-roledescription="bar" d="M0,173.64867479143018h90v426.35132520856985h-90Z" fill="#1b9e77"/></g></g><path class="foreground" aria-hidden="true" d="" display="none"/></g></g></g><path class="foreground" aria-hidden="true" d="" display="none"/></g><g transform="translate(605,171.57604615182876)"><path class="background" aria-hidden="true" d="M6,0L84,0C87.311490146964,0,90,2.688509853036,90,6L90,428.4239538481712C90,428.4239538481712,90,428.4239538481712,90,428.4239538481712L0,428.4239538481712C0,428.4239538481712,0,428.4239538481712,0,428.4239538481712L0,6C0,2.688509853036,2.688509853036,0,6,0Z"/><g clip-path="url(#clip7)"><g class="mark-group role-scope" role="graphics-object" aria-roledescription="group mark container"><g transform="translate(0,-171.57604615182876)"><path class="background" aria-hidden="true" d="M0,0h90v0h-90Z"/><g><g class="mark-rect role-mark layer_0_marks" role="graphics-object" aria-roledescription="rect mark container"><path aria-label="Parser: oyaml; Execution Time (seconds, lower=better): 18.976839167; parser: oyaml; Execution Time (s): 18.9768; Slowdown: 44.59" role="graphics-symbol" aria-roledescription="bar" d="M0,171.57604615182876h90v428.4239538481712h-90Z" fill="#e7298a"/></g></g><path class="foreground" aria-hidden="true" d="" display="none"/></g></g></g><path class="foreground" aria-hidden="true" d="" display="none"/></g><g transform="translate(705,23.076923076923062)"><path class="background" aria-hidden="true" d="M6,0L84,0C87.311490146964,0,90,2.688509853036,90,6L90,576.9230769230769C90,576.9230769230769,90,576.9230769230769,90,576.9230769230769L0,576.9230769230769C0,576.9230769230769,0,576.9230769230769,0,576.9230769230769L0,6C0,2.688509853036,2.688509853036,0,6,0Z"/><g clip-path="url(#clip8)"><g class="mark-group role-scope" role="graphics-object" aria-roledescription="group mark container"><g transform="translate(0,-23.076923076923062)"><path class="background" aria-hidden="true" d="M0,0h90v0h-90Z"/><g><g class="mark-rect role-mark layer_0_marks" role="graphics-object" aria-roledescription="rect mark container"><path aria-label="Parser: ruamel.yaml; Execution Time (seconds, lower=better): 25.5545385457; parser: ruamel.yaml; Execution Time (s): 25.5545; Slowdown: 60.04" role="graphics-symbol" aria-roledescription="bar" d="M0,23.076923076923062h90v576.9230769230769h-90Z" fill="#66a61e"/></g></g><path class="foreground" aria-hidden="true" d="" display="none"/></g></g></g><path class="foreground" aria-hidden="true" d="" display="none"/></g></g><g class="mark-text role-mark layer_1_marks" role="graphics-object" aria-roledescription="text mark container"><text aria-label="Parser: yaml_rs; Execution Time (seconds, lower=better): 0.425621715667; parser: yaml_rs; label: 0.4256s (x1.00); Execution Time (s): 0.4256; Slowdown: 1.00" role="graphics-symbol" aria-roledescription="text mark" text-anchor="middle" transform="translate(50,586.391100611385)" font-family="sans-serif" font-size="9px" font-weight="bold" fill="#a6761d">0.4256s (x1.00)</text><text aria-label="Parser: yaml_rs (parse_dt=False); Execution Time (seconds, lower=better): 0.457515281667; parser: yaml_rs (parse_dt=False); label: 0.4575s (x1.07); Execution Time (s): 0.4575; Slowdown: 1.07" role="graphics-symbol" aria-roledescription="text mark" text-anchor="middle" transform="translate(150,585.6710667043841)" font-family="sans-serif" font-size="9px" font-weight="bold" fill="#666666">0.4575s (x1.07)</text><text aria-label="Parser: ryaml; Execution Time (seconds, lower=better): 0.561659824334; parser: ryaml; label: 0.5617s (x1.32); Execution Time (s): 0.5617; Slowdown: 1.32" role="graphics-symbol" aria-roledescription="text mark" text-anchor="middle" transform="translate(250,583.3198839627055)" font-family="sans-serif" font-size="9px" font-weight="bold" fill="#e6ab02">0.5617s (x1.32)</text><text aria-label="Parser: PyYAML (CSafeLoader); Execution Time (seconds, lower=better): 1.723694931; parser: PyYAML (CSafeLoader); label: 1.7237s (x4.05); Execution Time (s): 1.7237; Slowdown: 4.05" role="graphics-symbol" aria-roledescription="text mark" text-anchor="middle" transform="translate(350,557.0856059289779)" font-family="sans-serif" font-size="9px" font-weight="bold" fill="#7570b3">1.7237s (x4.05)</text><text aria-label="Parser: PyYAML (CLoader); Execution Time (seconds, lower=better): 1.735153368; parser: PyYAML (CLoader); label: 1.7352s (x4.08); Execution Time (s): 1.7352; Slowdown: 4.08" role="graphics-symbol" aria-roledescription="text mark" text-anchor="middle" transform="translate(450,556.8269185447723)" font-family="sans-serif" font-size="9px" font-weight="bold" fill="#d95f02">1.7352s (x4.08)</text><text aria-label="Parser: PyYAML; Execution Time (seconds, lower=better): 18.8850330483; parser: PyYAML; label: 18.8850s (x44.37); Execution Time (s): 18.8850; Slowdown: 44.37" role="graphics-symbol" aria-roledescription="text mark" text-anchor="middle" transform="translate(550,169.64867479143018)" font-family="sans-serif" font-size="9px" font-weight="bold" fill="#1b9e77">18.8850s (x44.37)</text><text aria-label="Parser: oyaml; Execution Time (seconds, lower=better): 18.976839167; parser: oyaml; label: 18.9768s (x44.59); Execution Time (s): 18.9768; Slowdown: 44.59" role="graphics-symbol" aria-roledescription="text mark" text-anchor="middle" transform="translate(650,167.57604615182876)" font-family="sans-serif" font-size="9px" font-weight="bold" fill="#e7298a">18.9768s (x44.59)</text><text aria-label="Parser: ruamel.yaml; Execution Time (seconds, lower=better): 25.5545385457; parser: ruamel.yaml; label: 25.5545s (x60.04); Execution Time (s): 25.5545; Slowdown: 60.04" role="graphics-symbol" aria-roledescription="text mark" text-anchor="middle" transform="translate(750,19.076923076923062)" font-family="sans-serif" font-size="9px" font-weight="bold" fill="#66a61e">25.5545s (x60.04)</text></g><g class="mark-group role-title"><g transform="translate(400,-31)"><path class="background" aria-hidden="true" d="M0,0h0v0h0Z" pointer-events="none"/><g><g class="mark-text role-title-text" role="graphics-symbol" aria-roledescription="title" aria-label="Title text 'YAML parsers benchmark (loads)'" pointer-events="none"><text text-anchor="middle" transform="translate(0,10)" font-family="sans-serif" font-size="13px" font-weight="bold" fill="#000" opacity="1">YAML parsers benchmark (loads)</text></g><g class="mark-text role-title-subtitle" role="graphics-symbol" aria-roledescription="subtitle" aria-label="Subtitle text 'Python: 3.14.0 (Linux 6.17.7-ba25.fc43.x86_64) | CPU: AMD Ryzen 9 9950X 16-Core Processor'" pointer-events="none"><text text-anchor="middle" transform="translate(0,25)" font-family="sans-serif" font-size="12px" fill="#000" opacity="1">Python: 3.14.0 (Linux 6.17.7-ba25.fc43.x86_64) | CPU: AMD Ryzen 9 9950X 16-Core Processor</text></g></g><path class="foreground" aria-hidden="true" d="" pointer-events="none" display="none"/></g></g></g><path class="foreground" aria-hidden="true" d="" display="none"/></g></g></g><defs><clipPath id="clip1"><path d="M4.804449694307493,0L85.1955503056925,0C87.84719827640642,0,90,2.1528017235935826,90,4.804449694307493L90,9.608899388614986C90,9.608899388614986,90,9.608899388614986,90,9.608899388614986L0,9.608899388614986C0,9.608899388614986,0,9.608899388614986,0,9.608899388614986L0,4.804449694307493C0,2.1528017235935826,2.1528017235935826,0,4.804449694307493,0Z"/></clipPath><clipPath id="clip2"><path d="M5.164466647807956,0L84.83553335219204,0C87.68588008861542,0,90,2.314119911384582,90,5.164466647807956L90,10.328933295615911C90,10.328933295615911,90,10.328933295615911,90,10.328933295615911L0,10.328933295615911C0,10.328933295615911,0,10.328933295615911,0,10.328933295615911L0,5.164466647807956C0,2.314119911384582,2.314119911384582,0,5.164466647807956,0Z"/></clipPath><clipPath id="clip3"><path d="M6,0L84,0C87.311490146964,0,90,2.688509853036,90,6L90,12.68011603729451C90,12.68011603729451,90,12.68011603729451,90,12.68011603729451L0,12.68011603729451C0,12.68011603729451,0,12.68011603729451,0,12.68011603729451L0,6C0,2.688509853036,2.688509853036,0,6,0Z"/></clipPath><clipPath id="clip4"><path d="M6,0L84,0C87.311490146964,0,90,2.688509853036,90,6L90,38.914394071022116C90,38.914394071022116,90,38.914394071022116,90,38.914394071022116L0,38.914394071022116C0,38.914394071022116,0,38.914394071022116,0,38.914394071022116L0,6C0,2.688509853036,2.688509853036,0,6,0Z"/></clipPath><clipPath id="clip5"><path d="M6,0L84,0C87.311490146964,0,90,2.688509853036,90,6L90,39.1730814552277C90,39.1730814552277,90,39.1730814552277,90,39.1730814552277L0,39.1730814552277C0,39.1730814552277,0,39.1730814552277,0,39.1730814552277L0,6C0,2.688509853036,2.688509853036,0,6,0Z"/></clipPath><clipPath id="clip6"><path d="M6,0L84,0C87.311490146964,0,90,2.688509853036,90,6L90,426.35132520856985C90,426.35132520856985,90,426.35132520856985,90,426.35132520856985L0,426.35132520856985C0,426.35132520856985,0,426.35132520856985,0,426.35132520856985L0,6C0,2.688509853036,2.688509853036,0,6,0Z"/></clipPath><clipPath id="clip7"><path d="M6,0L84,0C87.311490146964,0,90,2.688509853036,90,6L90,428.4239538481712C90,428.4239538481712,90,428.4239538481712,90,428.4239538481712L0,428.4239538481712C0,428.4239538481712,0,428.4239538481712,0,428.4239538481712L0,6C0,2.688509853036,2.688509853036,0,6,0Z"/></clipPath><clipPath id="clip8"><path d="M6,0L84,0C87.311490146964,0,90,2.688509853036,90,6L90,576.9230769230769C90,576.9230769230769,90,576.9230769230769,90,576.9230769230769L0,576.9230769230769C0,576.9230769230769,0,576.9230769230769,0,576.9230769230769L0,6C0,2.688509853036,2.688509853036,0,6,0Z"/></clipPath></defs></svg>
