<svg xmlns="http://www.w3.org/2000/svg" xmlns:xlink="http://www.w3.org/1999/xlink" version="1.1" class="marks" width="844" height="673" viewBox="0 0 844 673"><rect width="844" height="673" fill="white"/><g fill="none" stroke-miterlimit="10" transform="translate(39,36)"><g class="mark-group role-frame root" role="graphics-object" aria-roledescription="group mark container"><g transform="translate(0,0)"><path class="background" aria-hidden="true" d="M0.5,0.5h800v600h-800Z" stroke="#ddd"/><g><g class="mark-group role-axis" role="graphics-symbol" aria-roledescription="axis" aria-label="X-axis titled 'Parser' for a discrete scale with 8 values: yaml_rs, yaml_rs (parse_dt=False), ryaml, PyYAML (CSafeLoader), PyYAML (CLoader), ending with ruamel.yaml"><g transform="translate(0.5,600.5)"><path class="background" aria-hidden="true" d="M0,0h0v0h0Z" pointer-events="none"/><g><g class="mark-rule role-axis-tick" pointer-events="none"><line transform="translate(50,0)" x2="0" y2="5" stroke="#888" stroke-width="1" opacity="1"/><line transform="translate(150,0)" x2="0" y2="5" stroke="#888" stroke-width="1" opacity="1"/><line transform="translate(250,0)" x2="0" y2="5" stroke="#888" stroke-width="1" opacity="1"/><line transform="translate(350,0)" x2="0" y2="5" stroke="#888" stroke-width="1" opacity="1"/><line transform="translate(450,0)" x2="0" y2="5" stroke="#888" stroke-width="1" opacity="1"/><line transform="translate(550,0)" x2="0" y2="5" stroke="#888" stroke-width="1" opacity="1"/><line transform="translate(650,0)" x2="0" y2="5" stroke="#888" stroke-width="1" opacity="1"/><line transform="translate(750,0)" x2="0" y2="5" stroke="#888" stroke-width="1" opacity="1"/></g><g class="mark-text role-axis-label" pointer-events="none"><text text-anchor="middle" transform="translate(49.5,15)" font-family="sans-serif" font-size="10px" fill="#000" opacity="1">yaml_rs</text><text text-anchor="middle" transform="translate(149.5,15)" font-family="sans-serif" font-size="10px" fill="#000" opacity="1">yaml_rs (parse_dt=False)</text><text text-anchor="middle" transform="translate(249.5,15)" font-family="sans-serif" font-size="10px" fill="#000" opacity="1">ryaml</text><text text-anchor="middle" transform="translate(349.5,15)" font-family="sans-serif" font-size="10px" fill="#000" opacity="1">PyYAML (CSafeLoader)</text><text text-anchor="middle" transform="translate(449.5,15)" font-family="sans-serif" font-size="10px" fill="#000" opacity="1">PyYAML (CLoader)</text><text text-anchor="middle" transform="translate(549.5,15)" font-family="sans-serif" font-size="10px" fill="#000" opacity="1">PyYAML</text><text text-anchor="middle" transform="translate(649.5,15)" font-family="sans-serif" font-size="10px" fill="#000" opacity="1">oyaml</text><text text-anchor="middle" transform="translate(749.5,15)" font-family="sans-serif" font-size="10px" fill="#000" opacity="1">ruamel.yaml</text></g><g class="mark-rule role-axis-domain" pointer-events="none"><line transform="translate(0,0)" x2="800" y2="0" stroke="#888" stroke-width="1" opacity="1"/></g><g class="mark-text role-axis-title" pointer-events="none"><text text-anchor="middle" transform="translate(400,30)" font-family="sans-serif" font-size="11px" font-weight="bold" fill="#000" opacity="1">Parser</text></g></g><path class="foreground" aria-hidden="true" d="" pointer-events="none" display="none"/></g></g><g class="mark-group role-axis" role="graphics-symbol" aria-roledescription="axis" aria-label="Y-axis titled 'Execution Time (seconds, lower=better)' for a linear scale with values from 0 to 28"><g transform="translate(0.5,0.5)"><path class="background" aria-hidden="true" d="M0,0h0v0h0Z" pointer-events="none"/><g><g class="mark-rule role-axis-tick" pointer-events="none"><line transform="translate(0,600)" x2="-5" y2="0" stroke="#888" stroke-width="1" opacity="1"/><line transform="translate(0,556)" x2="-5" y2="0" stroke="#888" stroke-width="1" opacity="1"/><line transform="translate(0,513)" x2="-5" y2="0" stroke="#888" stroke-width="1" opacity="1"/><line transform="translate(0,469)" x2="-5" y2="0" stroke="#888" stroke-width="1" opacity="1"/><line transform="translate(0,426)" x2="-5" y2="0" stroke="#888" stroke-width="1" opacity="1"/><line transform="translate(0,382)" x2="-5" y2="0" stroke="#888" stroke-width="1" opacity="1"/><line transform="translate(0,339)" x2="-5" y2="0" stroke="#888" stroke-width="1" opacity="1"/><line transform="translate(0,295)" x2="-5" y2="0" stroke="#888" stroke-width="1" opacity="1"/><line transform="translate(0,251)" x2="-5" y2="0" stroke="#888" stroke-width="1" opacity="1"/><line transform="translate(0,208)" x2="-5" y2="0" stroke="#888" stroke-width="1" opacity="1"/><line transform="translate(0,164)" x2="-5" y2="0" stroke="#888" stroke-width="1" opacity="1"/><line transform="translate(0,121)" x2="-5" y2="0" stroke="#888" stroke-width="1" opacity="1"/><line transform="translate(0,77)" x2="-5" y2="0" stroke="#888" stroke-width="1" opacity="1"/><line transform="translate(0,34)" x2="-5" y2="0" stroke="#888" stroke-width="1" opacity="1"/></g><g class="mark-text role-axis-label" pointer-events="none"><text text-anchor="end" transform="translate(-7,603)" font-family="sans-serif" font-size="10px" fill="#000" opacity="1">0</text><text text-anchor="end" transform="translate(-7,559.4324386147488)" font-family="sans-serif" font-size="10px" fill="#000" opacity="1">2</text><text text-anchor="end" transform="translate(-7,515.8648772294974)" font-family="sans-serif" font-size="10px" fill="#000" opacity="1">4</text><text text-anchor="end" transform="translate(-7,472.2973158442462)" font-family="sans-serif" font-size="10px" fill="#000" opacity="1">6</text><text text-anchor="end" transform="translate(-7,428.729754458995)" font-family="sans-serif" font-size="10px" fill="#000" opacity="1">8</text><text text-anchor="end" transform="translate(-7,385.16219307374377)" font-family="sans-serif" font-size="10px" fill="#000" opacity="1">10</text><text text-anchor="end" transform="translate(-7,341.5946316884925)" font-family="sans-serif" font-size="10px" fill="#000" opacity="1">12</text><text text-anchor="end" transform="translate(-7,298.0270703032412)" font-family="sans-serif" font-size="10px" fill="#000" opacity="1">14</text><text text-anchor="end" transform="translate(-7,254.45950891799004)" font-family="sans-serif" font-size="10px" fill="#000" opacity="1">16</text><text text-anchor="end" transform="translate(-7,210.89194753273875)" font-family="sans-serif" font-size="10px" fill="#000" opacity="1">18</text><text text-anchor="end" transform="translate(-7,167.3243861474875)" font-family="sans-serif" font-size="10px" fill="#000" opacity="1">20</text><text text-anchor="end" transform="translate(-7,123.75682476223623)" font-family="sans-serif" font-size="10px" fill="#000" opacity="1">22</text><text text-anchor="end" transform="translate(-7,80.18926337698497)" font-family="sans-serif" font-size="10px" fill="#000" opacity="1">24</text><text text-anchor="end" transform="translate(-7,36.62170199173378)" font-family="sans-serif" font-size="10px" fill="#000" opacity="1">26</text></g><g class="mark-rule role-axis-domain" pointer-events="none"><line transform="translate(0,600)" x2="0" y2="-600" stroke="#888" stroke-width="1" opacity="1"/></g><g class="mark-text role-axis-title" pointer-events="none"><text text-anchor="middle" transform="translate(-22.123046875,300) rotate(-90) translate(0,-2)" font-family="sans-serif" font-size="11px" font-weight="bold" fill="#000" opacity="1">Execution Time (seconds, lower=better)</text></g></g><path class="foreground" aria-hidden="true" d="" pointer-events="none" display="none"/></g></g><g class="mark-group role-scope" role="graphics-object" aria-roledescription="group mark container"><g transform="translate(5,590.5180411582808)"><path class="background" aria-hidden="true" d="M4.740979420859617,0L85.25902057914038,0C87.87563835232967,0,90,2.1243616476703315,90,4.740979420859617L90,9.481958841719234C90,9.481958841719234,90,9.481958841719234,90,9.481958841719234L0,9.481958841719234C0,9.481958841719234,0,9.481958841719234,0,9.481958841719234L0,4.740979420859617C0,2.1243616476703315,2.1243616476703315,0,4.740979420859617,0Z"/><g clip-path="url(#clip1)"><g class="mark-group role-scope" role="graphics-object" aria-roledescription="group mark container"><g transform="translate(0,-590.5180411582808)"><path class="background" aria-hidden="true" d="M0,0h90v0h-90Z"/><g><g class="mark-rect role-mark layer_0_marks" role="graphics-object" aria-roledescription="rect mark container"><path aria-label="Parser: yaml_rs; Execution Time (seconds, lower=better): 0.435276087999; parser: yaml_rs; Execution Time (s): 0.4353; Slowdown: 1.00" role="graphics-symbol" aria-roledescription="bar" d="M0,590.5180411582808h90v9.481958841719234h-90Z" fill="#a6761d"/></g></g><path class="foreground" aria-hidden="true" d="" display="none"/></g></g></g><path class="foreground" aria-hidden="true" d="" display="none"/></g><g transform="translate(105,590.2986905839705)"><path class="background" aria-hidden="true" d="M4.850654708014758,0L85.14934529198524,0C87.82649450397115,0,90,2.1735054960288567,90,4.850654708014758L90,9.701309416029517C90,9.701309416029517,90,9.701309416029517,90,9.701309416029517L0,9.701309416029517C0,9.701309416029517,0,9.701309416029517,0,9.701309416029517L0,4.850654708014758C0,2.1735054960288567,2.1735054960288567,0,4.850654708014758,0Z"/><g clip-path="url(#clip2)"><g class="mark-group role-scope" role="graphics-object" aria-roledescription="group mark container"><g transform="translate(0,-590.2986905839705)"><path class="background" aria-hidden="true" d="M0,0h90v0h-90Z"/><g><g class="mark-rect role-mark layer_0_marks" role="graphics-object" aria-roledescription="rect mark container"><path aria-label="Parser: yaml_rs (parse_dt=False); Execution Time (seconds, lower=better): 0.445345532666; parser: yaml_rs (parse_dt=False); Execution Time (s): 0.4453; Slowdown: 1.02" role="graphics-symbol" aria-roledescription="bar" d="M0,590.2986905839705h90v9.701309416029517h-90Z" fill="#666666"/></g></g><path class="foreground" aria-hidden="true" d="" display="none"/></g></g></g><path class="foreground" aria-hidden="true" d="" display="none"/></g><g transform="translate(205,587.5246393230335)"><path class="background" aria-hidden="true" d="M6,0L84,0C87.311490146964,0,90,2.688509853036,90,6L90,12.475360676966488C90,12.475360676966488,90,12.475360676966488,90,12.475360676966488L0,12.475360676966488C0,12.475360676966488,0,12.475360676966488,0,12.475360676966488L0,6C0,2.688509853036,2.688509853036,0,6,0Z"/><g clip-path="url(#clip3)"><g class="mark-group role-scope" role="graphics-object" aria-roledescription="group mark container"><g transform="translate(0,-587.5246393230335)"><path class="background" aria-hidden="true" d="M0,0h90v0h-90Z"/><g><g class="mark-rect role-mark layer_0_marks" role="graphics-object" aria-roledescription="rect mark container"><path aria-label="Parser: ryaml; Execution Time (seconds, lower=better): 0.572690335667; parser: ryaml; Execution Time (s): 0.5727; Slowdown: 1.32" role="graphics-symbol" aria-roledescription="bar" d="M0,587.5246393230335h90v12.475360676966488h-90Z" fill="#e6ab02"/></g></g><path class="foreground" aria-hidden="true" d="" display="none"/></g></g></g><path class="foreground" aria-hidden="true" d="" display="none"/></g><g transform="translate(305,560.5464548828527)"><path class="background" aria-hidden="true" d="M6,0L84,0C87.311490146964,0,90,2.688509853036,90,6L90,39.453545117147314C90,39.453545117147314,90,39.453545117147314,90,39.453545117147314L0,39.453545117147314C0,39.453545117147314,0,39.453545117147314,0,39.453545117147314L0,6C0,2.688509853036,2.688509853036,0,6,0Z"/><g clip-path="url(#clip4)"><g class="mark-group role-scope" role="graphics-object" aria-roledescription="group mark container"><g transform="translate(0,-560.5464548828527)"><path class="background" aria-hidden="true" d="M0,0h90v0h-90Z"/><g><g class="mark-rect role-mark layer_0_marks" role="graphics-object" aria-roledescription="rect mark container"><path aria-label="Parser: PyYAML (CSafeLoader); Execution Time (seconds, lower=better): 1.811143147; parser: PyYAML (CSafeLoader); Execution Time (s): 1.8111; Slowdown: 4.16" role="graphics-symbol" aria-roledescription="bar" d="M0,560.5464548828527h90v39.453545117147314h-90Z" fill="#7570b3"/></g></g><path class="foreground" aria-hidden="true" d="" display="none"/></g></g></g><path class="foreground" aria-hidden="true" d="" display="none"/></g><g transform="translate(405,560.4003136121634)"><path class="background" aria-hidden="true" d="M6,0L84,0C87.311490146964,0,90,2.688509853036,90,6L90,39.59968638783664C90,39.59968638783664,90,39.59968638783664,90,39.59968638783664L0,39.59968638783664C0,39.59968638783664,0,39.59968638783664,0,39.59968638783664L0,6C0,2.688509853036,2.688509853036,0,6,0Z"/><g clip-path="url(#clip5)"><g class="mark-group role-scope" role="graphics-object" aria-roledescription="group mark container"><g transform="translate(0,-560.4003136121634)"><path class="background" aria-hidden="true" d="M0,0h90v0h-90Z"/><g><g class="mark-rect role-mark layer_0_marks" role="graphics-object" aria-roledescription="rect mark container"><path aria-label="Parser: PyYAML (CLoader); Execution Time (seconds, lower=better): 1.81785186633; parser: PyYAML (CLoader); Execution Time (s): 1.8179; Slowdown: 4.18" role="graphics-symbol" aria-roledescription="bar" d="M0,560.4003136121634h90v39.59968638783664h-90Z" fill="#d95f02"/></g></g><path class="foreground" aria-hidden="true" d="" display="none"/></g></g></g><path class="foreground" aria-hidden="true" d="" display="none"/></g><g transform="translate(505,187.05146216219802)"><path class="background" aria-hidden="true" d="M6,0L84,0C87.311490146964,0,90,2.688509853036,90,6L90,412.94853783780195C90,412.94853783780195,90,412.94853783780195,90,412.94853783780195L0,412.94853783780195C0,412.94853783780195,0,412.94853783780195,0,412.94853783780195L0,6C0,2.688509853036,2.688509853036,0,6,0Z"/><g clip-path="url(#clip6)"><g class="mark-group role-scope" role="graphics-object" aria-roledescription="group mark container"><g transform="translate(0,-187.05146216219802)"><path class="background" aria-hidden="true" d="M0,0h90v0h-90Z"/><g><g class="mark-rect role-mark layer_0_marks" role="graphics-object" aria-roledescription="rect mark container"><path aria-label="Parser: PyYAML; Execution Time (seconds, lower=better): 18.956697355; parser: PyYAML; Execution Time (s): 18.9567; Slowdown: 43.55" role="graphics-symbol" aria-roledescription="bar" d="M0,187.05146216219802h90v412.94853783780195h-90Z" fill="#1b9e77"/></g></g><path class="foreground" aria-hidden="true" d="" display="none"/></g></g></g><path class="foreground" aria-hidden="true" d="" display="none"/></g><g transform="translate(605,184.49062196387567)"><path class="background" aria-hidden="true" d="M6,0L84,0C87.311490146964,0,90,2.688509853036,90,6L90,415.5093780361243C90,415.5093780361243,90,415.5093780361243,90,415.5093780361243L0,415.5093780361243C0,415.5093780361243,0,415.5093780361243,0,415.5093780361243L0,6C0,2.688509853036,2.688509853036,0,6,0Z"/><g clip-path="url(#clip7)"><g class="mark-group role-scope" role="graphics-object" aria-roledescription="group mark container"><g transform="translate(0,-184.49062196387567)"><path class="background" aria-hidden="true" d="M0,0h90v0h-90Z"/><g><g class="mark-rect role-mark layer_0_marks" role="graphics-object" aria-roledescription="rect mark container"><path aria-label="Parser: oyaml; Execution Time (seconds, lower=better): 19.074254552; parser: oyaml; Execution Time (s): 19.0743; Slowdown: 43.82" role="graphics-symbol" aria-roledescription="bar" d="M0,184.49062196387567h90v415.5093780361243h-90Z" fill="#e7298a"/></g></g><path class="foreground" aria-hidden="true" d="" display="none"/></g></g></g><path class="foreground" aria-hidden="true" d="" display="none"/></g><g transform="translate(705,23.076923076923062)"><path class="background" aria-hidden="true" d="M6,0L84,0C87.311490146964,0,90,2.688509853036,90,6L90,576.9230769230769C90,576.9230769230769,90,576.9230769230769,90,576.9230769230769L0,576.9230769230769C0,576.9230769230769,0,576.9230769230769,0,576.9230769230769L0,6C0,2.688509853036,2.688509853036,0,6,0Z"/><g clip-path="url(#clip8)"><g class="mark-group role-scope" role="graphics-object" aria-roledescription="group mark container"><g transform="translate(0,-23.076923076923062)"><path class="background" aria-hidden="true" d="M0,0h90v0h-90Z"/><g><g class="mark-rect role-mark layer_0_marks" role="graphics-object" aria-roledescription="rect mark container"><path aria-label="Parser: ruamel.yaml; Execution Time (seconds, lower=better): 26.484065602; parser: ruamel.yaml; Execution Time (s): 26.4841; Slowdown: 60.84" role="graphics-symbol" aria-roledescription="bar" d="M0,23.076923076923062h90v576.9230769230769h-90Z" fill="#66a61e"/></g></g><path class="foreground" aria-hidden="true" d="" display="none"/></g></g></g><path class="foreground" aria-hidden="true" d="" display="none"/></g></g><g class="mark-text role-mark layer_1_marks" role="graphics-object" aria-roledescription="text mark container"><text aria-label="Parser: yaml_rs; Execution Time (seconds, lower=better): 0.435276087999; parser: yaml_rs; label: 0.4353s (x1.00); Execution Time (s): 0.4353; Slowdown: 1.00" role="graphics-symbol" aria-roledescription="text mark" text-anchor="middle" transform="translate(50,586.5180411582808)" font-family="sans-serif" font-size="9px" font-weight="bold" fill="#a6761d">0.4353s (x1.00)</text><text aria-label="Parser: yaml_rs (parse_dt=False); Execution Time (seconds, lower=better): 0.445345532666; parser: yaml_rs (parse_dt=False); label: 0.4453s (x1.02); Execution Time (s): 0.4453; Slowdown: 1.02" role="graphics-symbol" aria-roledescription="text mark" text-anchor="middle" transform="translate(150,586.2986905839705)" font-family="sans-serif" font-size="9px" font-weight="bold" fill="#666666">0.4453s (x1.02)</text><text aria-label="Parser: ryaml; Execution Time (seconds, lower=better): 0.572690335667; parser: ryaml; label: 0.5727s (x1.32); Execution Time (s): 0.5727; Slowdown: 1.32" role="graphics-symbol" aria-roledescription="text mark" text-anchor="middle" transform="translate(250,583.5246393230335)" font-family="sans-serif" font-size="9px" font-weight="bold" fill="#e6ab02">0.5727s (x1.32)</text><text aria-label="Parser: PyYAML (CSafeLoader); Execution Time (seconds, lower=better): 1.811143147; parser: PyYAML (CSafeLoader); label: 1.8111s (x4.16); Execution Time (s): 1.8111; Slowdown: 4.16" role="graphics-symbol" aria-roledescription="text mark" text-anchor="middle" transform="translate(350,556.5464548828527)" font-family="sans-serif" font-size="9px" font-weight="bold" fill="#7570b3">1.8111s (x4.16)</text><text aria-label="Parser: PyYAML (CLoader); Execution Time (seconds, lower=better): 1.81785186633; parser: PyYAML (CLoader); label: 1.8179s (x4.18); Execution Time (s): 1.8179; Slowdown: 4.18" role="graphics-symbol" aria-roledescription="text mark" text-anchor="middle" transform="translate(450,556.4003136121634)" font-family="sans-serif" font-size="9px" font-weight="bold" fill="#d95f02">1.8179s (x4.18)</text><text aria-label="Parser: PyYAML; Execution Time (seconds, lower=better): 18.956697355; parser: PyYAML; label: 18.9567s (x43.55); Execution Time (s): 18.9567; Slowdown: 43.55" role="graphics-symbol" aria-roledescription="text mark" text-anchor="middle" transform="translate(550,183.05146216219802)" font-family="sans-serif" font-size="9px" font-weight="bold" fill="#1b9e77">18.9567s (x43.55)</text><text aria-label="Parser: oyaml; Execution Time (seconds, lower=better): 19.074254552; parser: oyaml; label: 19.0743s (x43.82); Execution Time (s): 19.0743; Slowdown: 43.82" role="graphics-symbol" aria-roledescription="text mark" text-anchor="middle" transform="translate(650,180.49062196387567)" font-family="sans-serif" font-size="9px" font-weight="bold" fill="#e7298a">19.0743s (x43.82)</text><text aria-label="Parser: ruamel.yaml; Execution Time (seconds, lower=better): 26.484065602; parser: ruamel.yaml; label: 26.4841s (x60.84); Execution Time (s): 26.4841; Slowdown: 60.84" role="graphics-symbol" aria-roledescription="text mark" text-anchor="middle" transform="translate(750,19.076923076923062)" font-family="sans-serif" font-size="9px" font-weight="bold" fill="#66a61e">26.4841s (x60.84)</text></g><g class="mark-group role-title"><g transform="translate(400,-31)"><path class="background" aria-hidden="true" d="M0,0h0v0h0Z" pointer-events="none"/><g><g class="mark-text role-title-text" role="graphics-symbol" aria-roledescription="title" aria-label="Title text 'YAML parsers benchmark (loads)'" pointer-events="none"><text text-anchor="middle" transform="translate(0,10)" font-family="sans-serif" font-size="13px" font-weight="bold" fill="#000" opacity="1">YAML parsers benchmark (loads)</text></g><g class="mark-text role-title-subtitle" role="graphics-symbol" aria-roledescription="subtitle" aria-label="Subtitle text 'Python: 3.14.0 (Linux 6.17.7-ba25.fc43.x86_64) | CPU: AMD Ryzen 9 9950X 16-Core Processor'" pointer-events="none"><text text-anchor="middle" transform="translate(0,25)" font-family="sans-serif" font-size="12px" fill="#000" opacity="1">Python: 3.14.0 (Linux 6.17.7-ba25.fc43.x86_64) | CPU: AMD Ryzen 9 9950X 16-Core Processor</text></g></g><path class="foreground" aria-hidden="true" d="" pointer-events="none" display="none"/></g></g></g><path class="foreground" aria-hidden="true" d="" display="none"/></g></g></g><defs><clipPath id="clip1"><path d="M4.740979420859617,0L85.25902057914038,0C87.87563835232967,0,90,2.1243616476703315,90,4.740979420859617L90,9.481958841719234C90,9.481958841719234,90,9.481958841719234,90,9.481958841719234L0,9.481958841719234C0,9.481958841719234,0,9.481958841719234,0,9.481958841719234L0,4.740979420859617C0,2.1243616476703315,2.1243616476703315,0,4.740979420859617,0Z"/></clipPath><clipPath id="clip2"><path d="M4.850654708014758,0L85.14934529198524,0C87.82649450397115,0,90,2.1735054960288567,90,4.850654708014758L90,9.701309416029517C90,9.701309416029517,90,9.701309416029517,90,9.701309416029517L0,9.701309416029517C0,9.701309416029517,0,9.701309416029517,0,9.701309416029517L0,4.850654708014758C0,2.1735054960288567,2.1735054960288567,0,4.850654708014758,0Z"/></clipPath><clipPath id="clip3"><path d="M6,0L84,0C87.311490146964,0,90,2.688509853036,90,6L90,12.475360676966488C90,12.475360676966488,90,12.475360676966488,90,12.475360676966488L0,12.475360676966488C0,12.475360676966488,0,12.475360676966488,0,12.475360676966488L0,6C0,2.688509853036,2.688509853036,0,6,0Z"/></clipPath><clipPath id="clip4"><path d="M6,0L84,0C87.311490146964,0,90,2.688509853036,90,6L90,39.453545117147314C90,39.453545117147314,90,39.453545117147314,90,39.453545117147314L0,39.453545117147314C0,39.453545117147314,0,39.453545117147314,0,39.453545117147314L0,6C0,2.688509853036,2.688509853036,0,6,0Z"/></clipPath><clipPath id="clip5"><path d="M6,0L84,0C87.311490146964,0,90,2.688509853036,90,6L90,39.59968638783664C90,39.59968638783664,90,39.59968638783664,90,39.59968638783664L0,39.59968638783664C0,39.59968638783664,0,39.59968638783664,0,39.59968638783664L0,6C0,2.688509853036,2.688509853036,0,6,0Z"/></clipPath><clipPath id="clip6"><path d="M6,0L84,0C87.311490146964,0,90,2.688509853036,90,6L90,412.94853783780195C90,412.94853783780195,90,412.94853783780195,90,412.94853783780195L0,412.94853783780195C0,412.94853783780195,0,412.94853783780195,0,412.94853783780195L0,6C0,2.688509853036,2.688509853036,0,6,0Z"/></clipPath><clipPath id="clip7"><path d="M6,0L84,0C87.311490146964,0,90,2.688509853036,90,6L90,415.5093780361243C90,415.5093780361243,90,415.5093780361243,90,415.5093780361243L0,415.5093780361243C0,415.5093780361243,0,415.5093780361243,0,415.5093780361243L0,6C0,2.688509853036,2.688509853036,0,6,0Z"/></clipPath><clipPath id="clip8"><path d="M6,0L84,0C87.311490146964,0,90,2.688509853036,90,6L90,576.9230769230769C90,576.9230769230769,90,576.9230769230769,90,576.9230769230769L0,576.9230769230769C0,576.9230769230769,0,576.9230769230769,0,576.9230769230769L0,6C0,2.688509853036,2.688509853036,0,6,0Z"/></clipPath></defs></svg>
